<svg id="Layer_1" data-name="Layer 1" xmlns="http://www.w3.org/2000/svg" viewBox="0 0 150 129.08"><defs><style>.cls-1{fill:#fff;}</style></defs><title>k-03</title><path class="cls-1" d="M148,120.57a22,22,0,0,1-11.64-3.32c-2.92-1.73-5.89-3.35-8.26-5.84a79.22,79.22,0,0,1-6.18-6.86c-3.32-4.43-6.93-8.65-10.44-12.94-4.16-5.1-8.35-10.15-12.22-15.48C95.68,71.21,91.5,66.75,87.72,62,85,58.52,82.44,54.9,79.59,51c.81-.22,1.64-.33,1.64-.47,0-2,2.13-2.28,3.06-3.57a37.54,37.54,0,0,1,3.59-3.82c1.23-1.29,2.51-2.53,3.77-3.78,3.78-3.78,7.63-7.49,11.32-11.35a76.42,76.42,0,0,1,14.72-12.14,27.65,27.65,0,0,1,7.85-3.8C130.31,11,134.94,9,139.92,9.5v-8h-54V9.56c4.24-.25,8.26.08,12,1.87a13.74,13.74,0,0,1-2.26,8.39c-1.29,2.08-3.36,3.51-4.59,5.5a60.37,60.37,0,0,1-4.55,5.81,80.78,80.78,0,0,1-6,6.18c-1.74,1.76-3.54,3.45-5.21,5.25-.89.95-1.43,2.79-2.38,3-1.72.34-1.17,2.2-2.55,2.69a11,11,0,0,0-3.12,2.36c-1,.91-1.95,1.92-2.92,2.89s-1.69,1.8-2.63,2.6-2.74,1.4-3,2.38c-.41,1.63-1.72,1.76-2.59,2.59-.24.22-.21.71-.27.94H52.05c0-8.33-.13-16.52,0-24.72.16-7.53-.89-15.13.75-21.69l3.25-3.44c2.41-.45,4.68-1.43,7.06-2,2.61-.59,5.25-.27,7.69-.82V1.4H3.22l-1.15,1V9.41A34,34,0,0,1,19.39,15,35.89,35.89,0,0,1,20,19.61Q20,65,20,110.41v4c-1,3.06-3.93,3.71-6.27,5.12L2,120.75v6.93H68.37v-6.85c-1.53-.43-2.94-1.24-4.23-1.09-2.33.28-3.88-1.39-5.91-1.73-2.41-.4-3.84-2.15-5.22-3.63-1.73-7.4-.78-14.73-.92-22s0-14.69,0-21.89h4.7c2.73,3.58,5.28,7.07,8,10.44,1.9,2.38,3.29,5.23,6,6.89,1,3.27,3.76,5.27,5.63,7.91,2.17,3.08,4.34,6.19,6.64,9.17S87.47,111,89.6,114c1,1.48,1.92,3,2.92,4.54,2.06,3.09,4.15,6.15,6.14,9.09H148Z"/></svg>