<?xml version="1.0" encoding="utf-8"?>
<!-- Generator: Adobe Illustrator 24.0.1, SVG Export Plug-In . SVG Version: 6.00 Build 0)  -->
<svg version="1.1" id="Layer_1" xmlns="http://www.w3.org/2000/svg" xmlns:xlink="http://www.w3.org/1999/xlink" x="0px" y="0px"
	 viewBox="0 0 821.47 864.24" style="enable-background:new 0 0 821.47 864.24;" xml:space="preserve">
<style type="text/css">
	.st0{fill:#FFFFFF;}
</style>
<g id="U0CTTX_1_">
	<g>
		<path class="st0" d="M158.12,120.6c0.94-8.88,1.56-17.13,2.74-25.29c1.62-11.26,3.64-22.46,5.51-33.68
			c0.91-5.41,1.78-10.82,2.85-16.2c1.99-9.97,4.11-19.91,6.17-29.86c0.1-0.49,0.11-0.99,0.18-1.49c1.06-8.59,1.06-8.59,9.55-8.59
			C338.77,5.5,492.43,5.51,646.09,5.52c2.14,0,4.29,0,6.75,0c9.05,37.25,13.05,75,17.14,113.48c1.86-0.68,3.08-0.94,4.12-1.53
			c13.74-7.78,28.3-13.87,43.61-17.28c10.06-2.24,20.93-3.49,31.05-2.2c23.8,3.04,41.52,15.85,52.05,37.84
			c5.43,11.34,10.24,22.93,10.94,35.67c0.8,14.54,2.43,29.19,1.43,43.64c-0.97,14.04-4.9,27.79-9.55,41.31
			c-7.46,21.7-17.93,41.69-30.58,60.69c-13.14,19.75-28.09,38.02-45.41,54.18c-12.02,11.21-24.44,22.07-37.44,32.11
			c-16.66,12.86-34.61,24.31-54.45,31.2c-10.74,3.73-13.68,12.1-18.99,19.52c-8.89,12.4-17.25,25.22-26.78,37.11
			c-6.49,8.1-14.4,15.11-22.02,22.24c-17.07,15.96-36.53,28.42-57.9,37.79c-9.79,4.29-19.89,7.87-30.24,11.93
			c-0.04,0.97-0.17,2.45-0.17,3.92c-0.04,23.83,0.07,47.66-0.21,71.49c-0.05,4.09,1.8,5.82,5,6.54c14.14,3.16,28.35,5.99,42.49,9.18
			c10.72,2.42,21.33,5.28,32.02,7.79c6.9,1.62,13.88,2.91,20.8,4.44c10.14,2.25,20.25,4.58,30.42,6.88c0,62.09,0,123.7,0,185.67
			c-127.29,0-254.34,0-381.83,0c-0.11-2.07-0.31-4.03-0.31-5.99c0.06-44.48,0.16-88.97,0.23-133.45
			c0.02-12.83,0.04-25.66-0.02-38.48c-0.02-3.8,1.43-5.21,5.44-5.97c9.84-1.88,19.5-4.72,29.24-7.13c7.8-1.93,15.62-3.73,23.41-5.69
			c9.35-2.35,18.66-4.82,28-7.19c7.67-1.95,15.34-3.87,23.03-5.72c6.18-1.49,12.48-2.58,18.53-4.47c1.58-0.49,3.44-3.28,3.46-5.04
			c0.25-23.5,0.28-47,0.02-70.49c-0.02-1.72-2.35-4.32-4.16-4.98c-20.16-7.37-39.22-17.07-56.82-29.16
			c-22.71-15.59-43.41-33.69-60.54-55.44c-8.49-10.79-16.59-21.94-24.07-33.45c-3.48-5.35-8.64-6.45-13.59-8.13
			c-14.1-4.79-27.42-11.13-40.29-18.55c-21.68-12.5-41.39-27.52-59.65-44.66c-15.8-14.83-30.02-30.94-42.9-48.31
			c-13.41-18.09-24.81-37.44-33.16-58.28c-5.52-13.76-10.3-28.16-12.73-42.72c-2.54-15.26-3.43-31.19-2.18-46.59
			c1.48-18.27,6.51-36.19,16.53-52.04c8.62-13.64,20.31-23.47,36.26-27.92c13.27-3.71,26.89-3.45,39.92-1.21
			c17.69,3.04,34.11,10.77,49.81,19.64c1,0.57,2.02,1.11,3.07,1.6C155.75,119.71,156.67,120.03,158.12,120.6z M569.68,706.2
			c-4.48-1.07-8.15-1.99-11.84-2.83c-10.82-2.45-21.65-4.84-32.46-7.31c-10.98-2.51-21.94-5.08-32.91-7.64
			c-8.05-1.88-16.09-3.79-24.14-5.65c-7.69-1.77-15.34-3.85-23.11-5.13c-6.29-1.03-6.62-0.83-6.6-7.32
			c0.07-28.66,0.18-57.32,0.25-85.99c0.04-16.33-0.06-32.67,0.18-49c0.03-1.82,1.48-4.7,2.94-5.21c5.4-1.91,11.13-2.86,16.64-4.5
			c9.69-2.87,19.6-5.26,28.89-9.11c26.12-10.83,48.93-26.49,67.84-47.79c12.47-14.04,22.87-29.28,31.96-45.74
			c14.78-26.76,24.18-55.35,31.19-84.81c3.59-15.11,6.3-30.47,8.58-45.83c2.05-13.75,3.45-27.64,4.28-41.52
			c1.07-17.91,1.44-35.88,1.78-53.83c0.11-5.56-1.02-11.14-1.3-16.73c-0.77-15.07-1.28-30.16-2.11-45.23
			c-0.67-12.1-1.24-24.24-2.61-36.27c-1.78-15.67-4.39-31.24-6.43-46.89c-0.53-4.03-2.01-5.78-6.32-5.71
			c-13.33,0.23-26.66,0.12-40,0.12c-119.66,0-239.32,0-358.98,0.02c-1.76,0-3.53,0.19-5.5,0.3c-0.88,6.56-1.56,12.63-2.54,18.66
			c-1.1,6.78-2.67,13.48-3.69,20.27c-1.09,7.21-1.84,14.47-2.64,21.72c-2,18.16-4.71,36.29-5.71,54.5
			c-1.08,19.75-0.93,39.59-0.56,59.38c0.29,15.6,1.17,31.23,2.8,46.74c2.28,21.79,5.82,43.44,11.94,64.55
			c3.7,12.74,6.63,25.83,11.71,38.01c6.88,16.52,14.98,32.6,23.51,48.34c8.78,16.21,20.14,30.83,32.53,44.41
			c17.77,19.49,38.2,35.96,61.34,48.75c14,7.74,28.46,14.58,44.26,18.09c5.8,1.29,11.54,2.87,17.21,4.29
			c0.14,1.47,0.29,2.29,0.29,3.11c0.03,44.66-0.03,89.33,0.2,133.99c0.02,4.41-3.09,4.73-5.46,5.7c-3.11,1.28-6.61,1.58-9.93,2.36
			c-10.27,2.42-20.56,4.77-30.79,7.33c-9.77,2.44-19.47,5.16-29.24,7.65c-7.33,1.86-14.73,3.48-22.07,5.32
			c-10.94,2.75-21.86,5.59-33.55,8.59c-0.24,2.41-0.75,5.33-0.77,8.25c-0.09,11.98-0.1,23.96-0.03,35.94
			c0.14,20.64,0.48,41.27,0.45,61.91c-0.01,4.65,1.96,5.64,6.02,5.63c31.32-0.08,62.65-0.02,93.97-0.06
			c33.32-0.04,66.64-0.21,99.96-0.22c31.65,0,63.31,0.05,94.96,0.34c4.83,0.04,5.74-1.69,5.71-6.07c-0.17-29.5-0.09-59-0.09-88.5
			C569.68,719.14,569.68,712.66,569.68,706.2z M181.13,384.85c0.38-0.41,0.75-0.81,1.13-1.22c-0.44-1.56-0.79-3.15-1.33-4.68
			c-1.67-4.72-3.66-9.34-5.07-14.13c-2.77-9.42-5.46-18.88-7.76-28.42c-2.67-11.04-5.18-22.14-7.19-33.32
			c-1.37-7.62-1.75-15.41-2.59-23.12c-1.23-11.19-3.27-22.35-3.54-33.57c-0.61-24.41-0.36-48.85-0.34-73.27
			c0-3.22-0.65-5.5-3.55-7.54c-19.15-13.43-39.25-24.62-62.78-28.31c-9.52-1.49-21.55,1.43-27.69,11.67
			c-6.56,10.95-9.34,23.03-10.54,35.36c-1.64,16.88-0.19,33.7,5.75,49.73c4.91,13.27,9.75,26.71,16.24,39.23
			c9.82,18.97,22.7,35.93,36.91,52.03c18.67,21.15,39.99,38.94,63.41,54.41C175.04,381.6,178.14,383.15,181.13,384.85z
			 M649.38,380.4c0.22,0.33,0.44,0.66,0.66,0.99c4.64-3.19,9.29-6.36,13.92-9.57c18.35-12.75,34.31-28.08,49.37-44.54
			c13.1-14.32,24.6-29.73,34.28-46.48c8.24-14.25,15.71-28.87,19.41-45.11c1.73-7.61,4.73-15.07,5.44-22.75
			c1.68-18.32,1.43-36.62-5.89-54.06c-5.49-13.08-13.09-21.86-28.88-20.19c-9.77,1.04-19.57,3.9-28.78,7.46
			c-9.34,3.61-18.03,8.96-26.89,13.77c-6.36,3.45-9.88,7.87-9.56,16.3c0.79,20.76,0.12,41.58-0.01,62.37
			c-0.03,4.99,0.17,10.04-0.43,14.97c-2.57,21.07-5.3,42.11-8.18,63.14c-1.24,9.09-2.5,18.22-4.59,27.13
			C656.39,356.13,652.72,368.22,649.38,380.4z"/>
		<path class="st0" d="M486.88,324.74c-5.7-3.74-11.4-7.47-17.09-11.22c-14.61-9.62-29.17-19.32-43.89-28.77
			c-1.18-0.76-3.82-0.5-5.11,0.33c-12.69,8.23-25.27,16.65-37.82,25.09c-5.8,3.9-11.41,8.06-17.26,11.88
			c-1.3,0.85-3.61,1.46-4.73,0.85c-1-0.54-1.55-3.01-1.34-4.49c1.85-13.1,3.85-26.18,5.94-39.25c1.49-9.31,3.06-18.61,4.81-27.88
			c0.59-3.14-1.42-4.36-3.32-5.79c-16.27-12.24-32.58-24.42-48.77-36.77c-1.75-1.34-2.73-3.68-4.07-5.56
			c2.16-0.89,4.26-2.34,6.49-2.59c19.47-2.21,38.96-4.2,58.44-6.26c0.17-0.02,0.34-0.09,0.49-0.07c10.8,1.92,13.61-5.48,16.69-13.53
			c6.76-17.64,14.02-35.09,21.38-52.5c0.76-1.79,3.55-3.69,5.44-3.74c1.72-0.04,4.47,2.01,5.11,3.75
			c5.26,14.2,10.15,28.54,15.1,42.85c2.21,6.4,4.07,12.94,6.57,19.22c0.61,1.53,3.04,3.09,4.79,3.3
			c15.35,1.83,30.73,3.36,46.11,4.97c6.43,0.67,12.87,1.35,19.3,1.99c3.24,0.33,6.27,1.03,7.15,4.76c0.82,3.49-1.28,5.41-3.96,7.16
			c-14.84,9.67-29.61,19.44-44.43,29.13c-6.72,4.4-6.96,5.49-5.07,13.35c2.22,9.24,3.91,18.62,5.92,27.91
			c2.47,11.42,5.06,22.82,7.56,34.24c0.48,2.19,0.75,4.42,1.12,6.64C487.93,324.09,487.41,324.42,486.88,324.74z"/>
		<path class="st0" d="M419.69,731.91c29.3,0,58.59-0.01,87.89,0c10.85,0,10.9,0.02,10.99,10.6c0.07,8.49-0.11,16.98,0.06,25.47
			c0.07,3.44-1.28,4.9-4.63,4.87c-2.33-0.02-4.66,0.21-6.98,0.21c-36.12-0.08-72.24-0.21-108.35-0.27
			c-23.47-0.04-46.93,0.04-70.4-0.03c-6.58-0.02-6.61-0.19-6.63-6.83c-0.03-9.49,0.16-18.98-0.08-28.47
			c-0.1-4.03,1.58-5.3,5.26-5.31c21.64-0.01,43.28-0.09,64.91-0.13c9.32-0.02,18.64,0,27.96,0
			C419.69,731.98,419.69,731.94,419.69,731.91z"/>
	</g>
</g>
</svg>
