<?xml version="1.0" encoding="utf-8"?>
<!-- Generator: Adobe Illustrator 24.0.1, SVG Export Plug-In . SVG Version: 6.00 Build 0)  -->
<svg version="1.1" id="Layer_1" xmlns="http://www.w3.org/2000/svg" xmlns:xlink="http://www.w3.org/1999/xlink" x="0px" y="0px"
	 viewBox="0 0 29.5 30" style="enable-background:new 0 0 29.5 30;" xml:space="preserve">
<style type="text/css">
	.st0{fill:#FFFFFF;}
</style>
<g>
	<path class="st0" d="M0.3,4c1.1-1.2,2.2-2.3,3.3-3.5c0.2-0.2,0.7-0.3,1.1-0.3c5.8,0,11.5,0,17.3,0c1.5,0,2.2,0.7,2.2,2.2
		c0,1.7,0,3.3,0,5c0,1.3,0,1.3-1.3,2.3c0-1.7,0-3.3,0-4.9c0-0.8,0-1.6,0-2.4c0-0.6-0.2-0.8-0.8-0.8c-5.4,0-10.9,0-16.3,0
		c-0.1,0-0.2,0-0.3,0.1c0,0.8,0,1.7,0,2.5c0,0.9-0.1,1.1-1.1,1.1c-0.9,0-1.7,0-2.7,0c0,0.4,0,0.7,0,1c0,7.1,0,14.1,0,21.2
		c0,1.2,0.1,1.3,1.3,1.3c6.2,0,12.5,0,18.7,0c1.2,0,1.3-0.1,1.3-1.3c0-2,0.1-3.9,0-5.9c-0.1-1,0.3-1.7,1.3-2.3
		c0,0.1,0.1,0.3,0.1,0.4c0,2.7,0,5.5,0,8.2c0,1.4-0.7,2.1-2.1,2.1c-6.5,0-13.1,0-19.6,0c-1.2,0-1.8-0.6-2.2-1.7
		C0.3,20.1,0.3,12.1,0.3,4z"/>
	<path class="st0" d="M29.2,11.5c-0.3,0.6-0.6,1.3-1,1.9c-1.3-1.3-2.5-2.4-3.7-3.6C25.2,9.1,26,8.8,27,8.9c1.1,0.1,1.7,0.8,2.1,1.8
		c0.1,0.2,0.1,0.4,0.2,0.5C29.2,11.3,29.2,11.4,29.2,11.5z"/>
	<path class="st0" d="M23.2,11.5c1.1,1.1,2.3,2.2,3.4,3.3c-3.4,3.3-6.8,6.7-10.2,10.1c-1.1-1.1-2.3-2.3-3.4-3.3
		C16.3,18.3,19.8,14.9,23.2,11.5z"/>
	<path class="st0" d="M7.3,12.3c0-0.6,0-1.2,0-1.8c3.7,0,7.4,0,11.2,0c0,0.6,0,1.1,0,1.8C14.8,12.3,11.1,12.3,7.3,12.3z"/>
	<path class="st0" d="M12.2,22.1c1.2,1.2,2.4,2.4,3.6,3.6c-0.2,0.1-0.4,0.3-0.6,0.4c-1.2,0.4-2.4,0.9-3.7,1.3
		c-0.3,0.1-0.7,0.1-0.9-0.1c-0.2-0.2-0.2-0.6-0.1-0.8c0.4-1.2,0.9-2.5,1.3-3.7C11.9,22.5,12,22.3,12.2,22.1z"/>
	<path class="st0" d="M14.2,15.4c0,0.6,0,1.2,0,1.8c-2.3,0-4.6,0-6.9,0c0-0.6,0-1.2,0-1.8C9.6,15.4,11.9,15.4,14.2,15.4z"/>
	<path class="st0" d="M6,11.3c0,0.7-0.6,1.3-1.3,1.3c-0.7,0-1.2-0.6-1.2-1.2c0-0.7,0.6-1.3,1.3-1.3C5.4,10.1,6,10.7,6,11.3z"/>
	<path class="st0" d="M6,16.3c0,0.7-0.5,1.2-1.2,1.2c-0.7,0-1.3-0.5-1.3-1.2c0-0.7,0.6-1.2,1.3-1.2C5.5,15.1,6,15.6,6,16.3z"/>
	<path class="st0" d="M23.6,10.9c0.2-0.2,0.4-0.3,0.5-0.4c1.2,1.2,2.4,2.3,3.5,3.5c0,0.1,0,0.1,0,0.2c-0.2,0-0.6,0.1-0.7-0.1
		C25.7,13,24.7,12,23.6,10.9z"/>
</g>
</svg>
