<svg id="Layer_1" data-name="Layer 1" xmlns="http://www.w3.org/2000/svg" viewBox="0 0 787.08 184.07"><defs><style>.cls-1{fill:#f26822;}.cls-2{fill:#2d86c7;}.cls-3{fill:#1f1a18;}.cls-4{fill:#34302d;}.cls-5{fill:#413d3a;}.cls-6{fill:#fffcf9;}.cls-7{fill:#fffcf8;}.cls-8{fill:#f8fcff;}.cls-9{fill:#2f85c6;}.cls-10{fill:#2c89ca;}.cls-11{fill:#318fce;}.cls-12{fill:#edf8fb;}</style></defs><title>Ketex-logo</title><path class="cls-1" d="M230.54,145.26v-134H785.37a.36.36,0,0,1,.1.1.47.47,0,0,1,.11.25V145.26ZM437.86,95.85c-1,1.86-1.66,3.87-2.69,5.73a110.33,110.33,0,0,1-5.88,9.5,22.24,22.24,0,0,1-3.87,4.33,7.69,7.69,0,0,1-3.38,1.83c-1.48.27-3,.43-4.52.59-3,.32-6,0-9,.63A8.63,8.63,0,0,1,404,118c-1.16-.4-2.57,0-3.85-.11a36.72,36.72,0,0,1-3.85-.81c-.79-1-2.08-2.12-2.57-3.5a12.85,12.85,0,0,1-.9-4.42c.07-8.85,0-17.7,0-26.54V80.34c3.67,0,7.07.17,10.43-.06a14.66,14.66,0,0,1,6.34,1.34,12.62,12.62,0,0,1,4.7,3.77c-.33,2.16,2,3.25,2,5.48,0,1.82,1.2,3.63,1.91,5.58,1.59,0,3.32.08,4.92-.06v-38h-5C417,61.25,416.24,64.18,415,67c-1.81,4.2-5.51,5.31-9.13,6.78h-13V39.26c.36,0,.65-.08.93-.08,7.18.24,14.39-.6,21.53.62a14.23,14.23,0,0,1,4,1.22,14.41,14.41,0,0,1,2.94,2.26,25.18,25.18,0,0,1,2.53,2.53c.76.91,1.79,1.6,2.46,2.52a32.07,32.07,0,0,1,2.56,4.59c.7,1.39,1.31,2.83,1.86,4h4.64V32.75H357.11v5.7c4.3.52,8.33,1.53,11.65,3.89a12.18,12.18,0,0,1,1.41,5q0,31.46,0,62.92c0,1.41,0,3.08-.69,4.16s-.9,3.2-3.06,2.89c-2.15,1.78-4.91,1.2-7.34,1.65a15.27,15.27,0,0,1-10.65-2.2,26.59,26.59,0,0,1-6-4.24,59.17,59.17,0,0,1-4.49-5c-2.41-3.22-5-6.28-7.57-9.4-3-3.7-6.06-7.36-8.88-11.23-2.59-3.57-5.63-6.81-8.38-10.27-2-2.51-3.83-5.14-5.9-7.94a5,5,0,0,0,1.2-.34c0-1.45,1.54-1.66,2.22-2.6a29.1,29.1,0,0,1,2.6-2.77c.9-.93,1.83-1.83,2.74-2.75,2.74-2.74,5.54-5.43,8.22-8.23a55.34,55.34,0,0,1,10.68-8.82,20,20,0,0,1,5.7-2.75c3.46-.82,6.82-2.24,10.44-1.9v-5.8H311.76v5.85A17.42,17.42,0,0,1,320.5,40a10,10,0,0,1-1.64,6.09c-.94,1.51-2.44,2.55-3.34,4a44,44,0,0,1-3.3,4.21,59.11,59.11,0,0,1-4.33,4.49c-1.26,1.27-2.56,2.5-3.78,3.81-.64.69-1,2-1.73,2.16-1.25.25-.85,1.6-1.84,2a7.85,7.85,0,0,0-2.27,1.71c-.74.66-1.42,1.4-2.12,2.1s-1.23,1.31-1.91,1.88-2,1-2.17,1.73c-.3,1.18-1.25,1.28-1.88,1.88-.17.16-.15.52-.2.69h-2.8c0-6-.1-12,0-18,.12-5.47-.64-11,.55-15.75l2.35-2.49c1.75-.33,3.4-1,5.13-1.43,1.89-.43,3.81-.2,5.59-.6V32.68H251.74l-.84.69v5.12a24.79,24.79,0,0,1,12.57,4,25,25,0,0,1,.42,3.37q0,33,0,65.91v2.94c-.73,2.22-2.85,2.7-4.55,3.72l-8.51.85v5H299v-5c-1.11-.31-2.13-.9-3.07-.79-1.69.2-2.82-1-4.29-1.26-1.75-.29-2.79-1.56-3.79-2.63-1.26-5.38-.56-10.7-.67-16s0-10.65,0-15.88h3.41c2,2.6,3.83,5.13,5.79,7.57,1.38,1.73,2.39,3.8,4.38,5,.69,2.38,2.73,3.83,4.08,5.75,1.58,2.23,3.16,4.49,4.82,6.66s3.22,4.4,4.77,6.64c.74,1.07,1.39,2.21,2.12,3.29,1.5,2.24,3,4.47,4.46,6.6H441.31c-.41-1.9.43-3.59.39-5.25-.17-6.3,1.11-12.54.68-18.84a6.75,6.75,0,0,1,0-1.49c.08-.44.37-.85.44-1.3a10.78,10.78,0,0,0,0-1.61Zm268.72-7.14c.54.76,1.13,1.5,1.63,2.3,2.11,3.42,4.65,6.56,6.57,10.11.66,1.23,1.57,2.32,2.29,3.52,1.38,2.31,2.75,4.63,4,7s1.29,2.47.95,5.14a10.61,10.61,0,0,1-5.5,1.79c-2.07.1-4.13.51-6.06.77v5.09h54.67v-5.11a46.37,46.37,0,0,1-5.22-.83,17.29,17.29,0,0,1-5.37-2.13,32.05,32.05,0,0,1-9.59-9.94,33.78,33.78,0,0,0-3.54-5.38,104.26,104.26,0,0,1-7.19-10.17L722.12,73c1.57-1.74,3.24-3.37,4.62-5.2a69.26,69.26,0,0,1,6.78-7.92,6.57,6.57,0,0,0,1.05-1.06,43.54,43.54,0,0,1,6.51-7.69,5.19,5.19,0,0,0,.84-.85c2.13-3.33,5.15-5.76,8.22-8.13,1.41,0,1.58-1.83,3.14-1.88,1.21,0,2.36-1,3.6-1.3a37.6,37.6,0,0,1,4.14-.61V32.68H726.53c-1.19,1.86-.42,3.89-.64,5.9,1.44,0,3-.46,3.73.11,1.18.92,2.51-.06,3.58.86A13.92,13.92,0,0,0,736,41.07v2.34c-1.09,2.43-2.73,4.24-3.89,6.39s-3,3.93-4.56,5.88-3.23,3.55-4.67,5.47-2.73,4.13-4.89,5.66c-.82-1.3-1.54-2.47-2.29-3.63-1.42-2.19-2.59-4.53-4.25-6.61a40,40,0,0,1-2.91-4.44c-1-1.59-2-3.15-2.84-4.79S704,43.87,703.12,42c.73-.49,1.28-1.13,2.13-1.68,2.24-1.41,4.73-1.14,7.09-1.65a16.07,16.07,0,0,1,3.26,0c1.36-1.62.45-3.46.76-5l-.79-.87H660.9v5.9a11.71,11.71,0,0,1,5.41.57,31,31,0,0,1,5.34,2.22,37.85,37.85,0,0,1,5,3.77,18.54,18.54,0,0,1,2.09,2.4,19.13,19.13,0,0,1,1.77,2.26,6,6,0,0,0,1.76,2.25c.68.44.83,1.61,1.34,2.37q2.6,3.86,5.27,7.66c1,1.38,1.79,2.87,2.85,4.23s2.09,2.88,3.12,4.34c1.3,1.85,2.29,3.91,3.92,5.55.28.28.23.89.37,1.52,1.56,1.31,2.77,3,2.17,5.36a52.11,52.11,0,0,0-4,4c-1.14,1.43-1.75,3.3-3.59,4.12a57,57,0,0,1-7,8.15,4.16,4.16,0,0,0-.83.85,19.77,19.77,0,0,1-4.47,5.6c-1.57,1.37-2.39,3.47-4.37,4.41,0,1.33-1.64,1-2,2.11s-1.49,1.29-2.21,2a11.67,11.67,0,0,1-3.91,2.71c-2.8,1-5.52,2.46-8.79,1.94,0,2-.05,3.71.07,5.33H696v-5.23c-3.28,0-6.27-1.15-9.31-2-1.18-1.49-.87-3,0-4.47,1.62-3,3.72-5.6,5.51-8.45.15-.25.82-.25.89-.47.64-2,2.56-3,3.7-4.68s2.74-3,3.93-4.65a39.39,39.39,0,0,1,4.64-5.76Zm-99.47-8.37c3.69,0,7.25.1,10.8,0a14.93,14.93,0,0,1,6.74,1.77c2.71,1.21,4.14,3.53,5.14,6.16.45,1.21.53,2.67,1.29,3.61.58.74.33,1.47.68,2.14a11.51,11.51,0,0,1,.66,2.38h5v-38h-5.23a5.26,5.26,0,0,1,0,1.83,73.36,73.36,0,0,1-3.62,8.32,9.28,9.28,0,0,1-3.77,3.53,13,13,0,0,1-6.45,1.73c-3,0-6,0-8.95,0-.75,0-1.51-.06-2.14-.09V39.18c6.47,0,12.83,0,19.18,0a10.71,10.71,0,0,1,1.65.33l4.63.89a28.77,28.77,0,0,1,12.91,15.94h5.61V33.43l-.76-.76h-79v5.77c4.3.61,8.35,1.51,11.83,4.11a23.75,23.75,0,0,1,1.19,6.37q0,30.27,0,60.54a26.73,26.73,0,0,1-.62,5.11,3.16,3.16,0,0,1-1.2,1.85,14.1,14.1,0,0,1-5.39,2.09c-2,.31-3.94.53-5.79.77v5.15h83.93c.24-.42.67-.82.69-1.23.07-2.09,0-4.18.05-6.26s.48-4,.55-6c.1-2.68,0-5.37,0-8,0-.6-.23-1.34,0-1.77,1-1.66.29-3.4.62-5.17h-4.81c-1.92,3.55-3.6,7.38-6,10.81s-4.49,7.41-8.18,10c-1,.2-2,.5-3,.61a21.54,21.54,0,0,0-3.36.53c-1.49.39-3.16,0-4.75.11s-3.22.56-4.83.54c-2.2,0-4.41-.5-6.61-.52-3.06,0-5.62-.92-7-2.66-1.92-4.45-1.8-8.32-1.76-12.18,0-3.08,0-6.16,0-9.24ZM547.56,39.89a9,9,0,0,1,4.27,2.89,36.69,36.69,0,0,1,5.76,8.57c1.2,2.68,2.55,5.3,3.93,8.14,1.54-.18,3.29.17,4.9-.13V32.77H479.48V59.41h5.22c.68-3.73,2.74-6.83,4.51-10.06a34.08,34.08,0,0,1,7.14-8.9,48.36,48.36,0,0,1,15.26-1.15v3.1c0,22.36,0,44.72.05,67.08a11.29,11.29,0,0,1-2.43,7.53c-3.68,1.63-7.58,1.69-11.24,2.29v5.1c11.79.43,47.49.25,49.92-.22v-4.86c-1.24-.29-2.33-.56-3.42-.8a10.53,10.53,0,0,1-3-.66c-1.12-.64-2.23-.44-3.23-.67-2.23-.75-3.11-2.63-4-4.55q0-36.48,0-73a.49.49,0,0,1,.1-.25c.06-.08.14-.13.09-.09C539,38.8,543.39,39.55,547.56,39.89Z"/><path class="cls-2" d="M2.9,155.49c-1.72-1.91-1.54-4.1-2.13-6a3.75,3.75,0,0,1,.3-3.11c.45-.74.21-1.91.26-2.8l1.46-3.48.7-.15c.12-.52,0-1.28.39-1.56,1.55-1.29,1.3-3.56,2.77-4.85-.07-1.49,1.09-2.33,1.76-3.45,2.37-4,5.42-7.45,7.89-11.34,2-.82,2.89-2.75,4-4.3s3.22-2.57,3.79-4.66c1.47-.48,1.8-2.06,2.88-3a21.67,21.67,0,0,0,2.78-3.3c.65-.81,1.22-1.7,1.91-2.48a16.27,16.27,0,0,1,2.55-2.5c.84-.6.72-2.06,2.05-2.11.42-1.64,1.78-2.62,2.73-3.89s2.29-2.3,3.21-3.73a49.5,49.5,0,0,1,4.36-5.07c.87-1,1.68-2.09,2.54-3.12a39.11,39.11,0,0,0,2.6-3.08,63.06,63.06,0,0,1,4.55-5.3,22.84,22.84,0,0,0,3-3.77,12.76,12.76,0,0,1,2.24-2.6c2-2.08,4.23-4,5.48-6.69,2.36-1.51,3.56-4.08,5.4-6.08,2.54-2.74,4.54-6,7.21-8.57,1.85-1.78,3-4,4.81-5.78a41.86,41.86,0,0,0,2.76-3.32c.92-1.11,1.86-2.2,2.74-3.34s2.45-1.72,2.75-3.33c1.1,0,1-1.2,1.66-1.64,2.88-2,5.34-4.58,8.36-6.44,2.31-1.43,4.6-2.9,6.85-4.44,2-1.39,4.29-2.57,6.43-3.86a12.61,12.61,0,0,0,2.8-1.91c.78-.8,2-1,2.93-1.6a56.29,56.29,0,0,1,7-4c1.71-.78,3.25-1.77,5.06-2.66,3-.21,5.91.75,8.94,1.68,3.27,1,6.5,2.1,9.76,3.11,2.37.74,4.67,1.7,7,2.59a19.37,19.37,0,0,1,3.79,1.61c1.18.77,2.66.25,3.72,1.15a6.3,6.3,0,0,0,3.37,1.27c1.13.16,2.09,1.08,3.34,1.27a13.81,13.81,0,0,1,3.14,1c1,.42,2,1.25,3,1.38,2.37.3,4.15,2.12,6.57,2.24.74,0,1.44.8,2.17,1.19a19.74,19.74,0,0,1,10.4,14.09c.31,1.54.91,3,1.15,4.59s1,2.93.63,4.51c1.51,2.33,1,5.12,1.67,7.65a50,50,0,0,1,.69,5.09A52.51,52.51,0,0,1,204.22,66c.88,1.1.25,2.52.68,3.6s.26,2.29.56,3.35c.73,2.59.31,5.39,1.23,7.84,1,2.61.9,5.34,1.62,8,.39,1.41.22,3,.65,4.51a40.93,40.93,0,0,1,1.1,6.07,62.74,62.74,0,0,0,1.26,7.56c.52,2.12.13,4.49.78,6.56.42,1.35.42,2.74.85,4.09a31.39,31.39,0,0,1,.8,4.75c.27,1.7,0,3.64.73,5.06s-.23,3.32,1.05,4.67c.24.26,0,1,0,1.46a16.93,16.93,0,0,0,1.1,6.1,1.77,1.77,0,0,1,.09.56c0,1.53-.16,3.09.6,4.52-.06,5.4,1.16,10.77.54,16.15-.4,3.51-.48,7.12-2.3,10.37a10.41,10.41,0,0,1-6.12,5.15c-2,.62-3.88,1.61-6.06,1.24a1.3,1.3,0,0,0-.82.14c-2.21,1.24-4.76,1.13-7.11,1.49a37.67,37.67,0,0,1-6.3.77c-.61,0-1.21.45-1.84.55-2.52.43-5.09.62-7.55,1.27-2.12.56-4.31.12-6.3.64a26.28,26.28,0,0,1-6.65.46,32.48,32.48,0,0,1-4.23-.56c-1.41-.19-2.93.45-4.23-.59-.06,0-.19,0-.29,0-2.51-.2-5-.36-7.51-.61-1-.1-2-.4-3-.58s-2,.41-2.74-.6c-1.66.28-3.21-.53-4.82-.56a72.53,72.53,0,0,1-8.48-1.09,42.37,42.37,0,0,0-6.3-.78c-1.2,0-2.42.41-3.69-.46-.93-.64-2.53.49-3.58-.68,0,0-.19,0-.29,0-2.51-.2-5-.26-7.51-.64-2.14-.32-4.33-.3-6.41-1-1.24-.44-2.58-.11-3.93-.6-1.75-.63-3.78-.47-5.68-.71-1.34-.17-2.71.4-4-.39-1.16-.7-2.54-.05-3.9-.66s-3.23,0-4.77-.73c-2.65.41-5.19-.58-7.81-.63a16.66,16.66,0,0,1-2.74-.56c-.83-.14-1.66.17-2.5-.53-.47-.39-1.54,0-2.32-.09-1.34-.15-2.71.41-4-.38s-2.75.4-3.85-.79c-1.75.2-3.45-.58-5.12-.51-2.85.11-5.58-.77-8.41-.69-1.56-1-3.45-.17-5-.81-1.74-.71-3.56.07-5.2-.43-2.8-.87-5.84-.36-8.54-1.71a2.7,2.7,0,0,0-1.47,0,6.65,6.65,0,0,1-3.91-.66c-1.49-.72-3.11-.55-4.64-1.05-1.3-.42-2.67-.77-3.94-1.3-3.08-1.3-6-2.81-8.16-5.53-.15-.21-.47-.29-.72-.41C3,155.47,2.85,155.49,2.9,155.49ZM132.65,4.58A21.16,21.16,0,0,0,130,6.39a44.08,44.08,0,0,0-5.65,5.7c-1.56,2.12-3.13,4.25-4.73,6.36s-3.41,4.39-5.21,6.52c-1.24,1.49-2.69,2.82-3.8,4.38a42.93,42.93,0,0,1-3.83,5,23.28,23.28,0,0,0-3.34,4,33.6,33.6,0,0,1-4.17,5.59c-1.59,1.74-2.72,3.81-4.46,5.41A27,27,0,0,0,91,53.68a96.94,96.94,0,0,1-8.45,10.81,27.39,27.39,0,0,0-3.35,4C77,72,74.21,75,71.72,78.19c-2.28,3-4.63,5.84-7,8.76-2.74,3.46-5.61,6.83-8.42,10.24a29.17,29.17,0,0,0-3.1,3.79c-1.9,3.3-4.66,5.93-6.85,9a72,72,0,0,0-7.7,12.64c-.49,1.1-1.35,2.08-1.55,3.22a18.1,18.1,0,0,1-1.17,3.7,17.43,17.43,0,0,0-.6,8.36c.31,2.68,3.78,7.15,6.25,8.63,1.51.89,3.11,1.62,4.68,2.4s3.32,1.08,4.93,1.78a5.12,5.12,0,0,0,2.13.56,9.69,9.69,0,0,1,3,.63,23.5,23.5,0,0,0,7,1.21,3.28,3.28,0,0,1,1.47,0c2.41,1.21,5.12,1.23,7.66,1.62,3,.45,6,.87,9,1.22,2.57.3,5.14,1.16,7.8.72a2.05,2.05,0,0,1,1.18,0c2.89,1.36,6.1,1,9.12,1.72,1.86.41,3.91.14,5.68.74a23.25,23.25,0,0,0,3.06.51,16.07,16.07,0,0,0,3,.62,29.4,29.4,0,0,1,6.3.62c1.83.44,3.65.79,5.49,1.14a22.19,22.19,0,0,0,6,.59,1.48,1.48,0,0,1,.83.16c1.24.78,2.72.61,4.07.93a46.22,46.22,0,0,0,6.89.69c.29,0,.71-.08.86.07,1.21,1.31,3.14-.24,4.32,1.12,1.58-.38,3,.52,4.52.59a30.65,30.65,0,0,1,4.85.48,13.7,13.7,0,0,0,3.31.74c1.24,0,2.52-.22,3.63.58a30.84,30.84,0,0,1,8.48,1.13,55.2,55.2,0,0,0,7.2.66,3.6,3.6,0,0,1,1.41.19c1.27.71,2.73.6,4.08.91a47.72,47.72,0,0,0,6.89.69,2.49,2.49,0,0,1,.87.07c3.67,1.69,7.73,1.46,11.58,2.26a20.89,20.89,0,0,0,5.36,0,5.16,5.16,0,0,0,3.79-1.64,11.15,11.15,0,0,0,2.26-3.24,23.61,23.61,0,0,0,1.7-7.34,40.88,40.88,0,0,0,0-6.26c-.17-2.1.35-4.17-.44-6.36-.64-1.8-.23-4-.59-6a39.72,39.72,0,0,0-.8-4.78,14.74,14.74,0,0,1-.52-4.25,4.05,4.05,0,0,0,0-1.48c-1.1-2.53-.94-5.32-1.69-7.94a35.11,35.11,0,0,1-.67-6.29,2.61,2.61,0,0,0-.09-.85c-1.25-3-1.28-6.27-1.69-9.44,0-.39.16-1,0-1.16-1-.9-.09-2.26-.65-3-.71-1-.35-1.87-.52-2.79s-.43-2-.58-3c-.23-1.6-.08-3.34-.68-4.79-1.14-2.77-.7-5.78-1.72-8.53.41-3.22-1.7-6.11-1.19-9.35-1.12-2.72-.81-5.72-1.7-8.53a37,37,0,0,1-.61-4.5c-.27-1.49-.13-3-.64-4.53a15.58,15.58,0,0,1-.61-3.62,17.46,17.46,0,0,0-.54-3.95c-.52-1.6-.1-3.55-.78-5.05s.09-3.48-1.09-4.92c.05-2.5-1.07-4.7-1.79-7-.42-1.32-.86-2.63-1.23-3.76-.68-1-1.22-1.89-1.86-2.7a7.69,7.69,0,0,0-1.69-1.68,43.87,43.87,0,0,0-9-5,59.18,59.18,0,0,0-7.77-2.88,41.35,41.35,0,0,1-4.09-1.62,37.53,37.53,0,0,1-4.43-1.55c-1.41-.67-3-.86-4.35-1.78s-3-1-4.45-1.43c-2.76-.8-5.11-2.62-8.08-2.91-1.21-.12-2.36-1-3.91-1.68a5.55,5.55,0,0,1-2.91-.53,10.07,10.07,0,0,0-5.15-1.24C135.88,4.6,134.19,4.58,132.65,4.58Z"/><path class="cls-3" d="M234.13,155h9.44v9.22c1.87.2,1.87.2,3-.63V155H256v26.07h-9.35V170.49h-3v10.6h-9.28c-1.07-.54-.9-1.47-.9-2.35V159.67a32.4,32.4,0,0,1,0-3.27A4.46,4.46,0,0,1,234.13,155Z"/><path class="cls-3" d="M484.86,155h9.35v8.52c1.54,1.2,1.54,1.2,3.08.1V155h9.4v26.06h-9.32V170.5h-2.9c-.66,3.44.59,7.13-.88,10.6h-8.73Z"/><path class="cls-3" d="M295.45,177.23l2.43-.77V155H308v21.08l-1.95,3-3.92,2c-2.73,0-5.8,0-8.86,0-2.39,0-4.26-1.31-6-2.67a3.86,3.86,0,0,1-1.25-3.34c0-6.65,0-13.3,0-20.09h9.46Z"/><path class="cls-3" d="M524.05,155.9,525,155h7.42v26.18c-2.84-1.09-5.68-.36-8.53-.66-1.51-3.34-3.06-6.75-4.61-10.16l-.39.07v10.65h-7.7V155h7.62c.75,1.54,1.58,3.28,2.43,5s1.7,3.36,2.84,5.59Z"/><path class="cls-3" d="M265,155.08a60.1,60.1,0,0,1,6.23-.72,18.72,18.72,0,0,1,5.39.62,7.21,7.21,0,0,1,3.47,2.26,8.12,8.12,0,0,1,1.83,3.4,23.42,23.42,0,0,1,.44,5.44c-.05,3.7-.23,7.39-.35,10.95-1.68,1.77-3.26,3.25-5.51,3.74a11.82,11.82,0,0,1-1.92.37c-2.29,0-4.57,0-6.86,0a9.08,9.08,0,0,1-7.09-3.65,5.43,5.43,0,0,1-.89-3.17c-.1-4.16-.08-8.33,0-12.5a19.76,19.76,0,0,1,.71-3.38Zm7.8,4.86c-1.59-1.19-1.93-1.19-3.49,0v16.29l1.85,1.6,1.64-1.71Z"/><path class="cls-3" d="M463.71,155a50.09,50.09,0,0,1,5.82-.63,46,46,0,0,1,5.5.59,8.63,8.63,0,0,1,6.14,6.18v5.07c-1.52.09-3.08,0-4.63,0h-5a17.9,17.9,0,0,0-.73-6.93c-1.66-.18-1.66-.18-2.77.61V176c1.64,1.47,2.37,1.35,2.94-.55a14.91,14.91,0,0,0,.58-2.44,20.26,20.26,0,0,0,0-2.48h9.71c-.2,2.28-.39,4.47-.56,6.31-1.35,2.08-3.18,2.89-5,3.72a4.57,4.57,0,0,1-2.14.63c-3.18-.08-6.35,0-9.17,0-1.15-.53-2-1-2.82-1.3a4.5,4.5,0,0,1-2.91-3.53c-.26-1.48-.91-2.86-.87-4.42.08-2.78,0-5.57.05-8.35a18,18,0,0,1,.65-4.2c.46-1.66,2.16-2.23,3.35-3.24A16.46,16.46,0,0,1,463.71,155Z"/><path class="cls-3" d="M551.9,179.28c-.72-1.13-1.36-2.15-2.09-3.28,0-4.54.12-9.21,0-13.87-.09-2.94,1.49-4.62,3.7-6,.62-.4,1.3-.7,2.25-1.2,1.15-.29,2.69.29,4.2-.52a4.18,4.18,0,0,1,3.2,0,9.72,9.72,0,0,0,2.48.52c2.42.41,4.74,1,6,3.51a5.16,5.16,0,0,0,1,1c-.88,2.14,1.78,4.45-.14,6.77H563v-6.1l-1-1h-1.93a18.56,18.56,0,0,0-.74,3.13c-.13,1.78,0,3.57,0,5.36,0,2-.06,4,0,6a28.38,28.38,0,0,0,.49,3.29c1.17.1,2.18.53,3-.85v-5.44h9.46a1.68,1.68,0,0,1,.71,2.32c-.74,1.22-.39,2.45-.6,4.14a1.14,1.14,0,0,0-.65.42c-1.44,2.77-4.15,3.29-6.79,3.66-2.05.28-4.18,0-6.26.08a11.28,11.28,0,0,1-5.94-1.53A9.19,9.19,0,0,0,551.9,179.28Z"/><path class="cls-3" d="M311.19,171.7h8.69v3.72l1.9,1.61,1.75-.58v-3.52a24.09,24.09,0,0,0-2.52-1.79,53.24,53.24,0,0,0-5.23-2.49,9.29,9.29,0,0,1-5.22-6.29,6,6,0,0,1,.56-3.28c.4-.94.52-2.17,2-2.46.83-.16,1.52-1.06,2.14-1.53,1.66-.28,3.15-.54,4.64-.78,2.45-.39,4.84.28,7.19.68a7.53,7.53,0,0,1,4.48,2.83,5.8,5.8,0,0,1,.87,4.63l-.72.72h-7.93l-.8-.8v-3.14c-1-.19-2-.55-2.92.78v2.24c1.91,1.82,4.37,2.54,6.58,3.67a15.16,15.16,0,0,1,4.69,3c.64.69,1.15,1.5,1.81,2.37-.3,2.45.7,5.13-1,7.64l-4.28,2.18H317L312.72,179A10.13,10.13,0,0,1,311.19,171.7Z"/><path class="cls-3" d="M593.39,156.1a19.89,19.89,0,0,0,.64,4.2c1.13,3.08,1.3,6.35,2.22,9.48.8,2.74,1,5.69,1.88,8.46a7.7,7.7,0,0,1,0,2.16c-3.06.61-6.25-.54-9.38.83-.34-1.58-.67-3.12-1-4.76h-3.07c-.31,1.49-.63,3-.95,4.63h-9.26c-.51-1.66,0-3.19.38-4.76s.19-3.12.78-4.44a9.64,9.64,0,0,0,.45-2.5,14.32,14.32,0,0,0,.56-2.44,19.73,19.73,0,0,1,1.12-5.19,29.41,29.41,0,0,0,.7-5.67Zm-7.67,6.76c-.4,1.27.19,2.46-.57,3.76-.52.88-.29,2.35-.65,3.55-.18.59.31,1.38.48,2,1.36.07,2.5.36,3.13-1.22a5.84,5.84,0,0,1-.67-1.6c-.26-2.28-.42-4.57-.63-6.86,0-.13-.22-.24-.33-.36Z"/><path class="cls-3" d="M666.21,180a20.21,20.21,0,0,1,.62-3,15.25,15.25,0,0,0,1.19-4.88c0-.43.37-.84.49-1.28a12.37,12.37,0,0,0,.68-5.08,2.75,2.75,0,0,0-.19-1.11c-.74-1.05-.73-2.33-1.15-3.41-.52-1.36-.36-3-1.52-4.16-.35-.36-.12-1.29-.15-2h8.87c1.37,1.86,1.22,4.35,2.17,6.46,1.41-1.93,1.6-4.29,2.33-6.49h8.17c-.88,3-1.7,5.89-2.59,8.76a7.91,7.91,0,0,0,0,5,39.73,39.73,0,0,0,1.74,5.24c.83,1.66,1,3.56,2,5.14.18.28,0,.77,0,1.3H680c-.81-2.57-1.68-5.36-2.72-8.66-.61,3.2-1.13,5.9-1.69,8.8h-9.39Z"/><path class="cls-3" d="M771.85,171.71c0,1.9-.35,3.84,1.51,5.21h1.76c1.45-1.49.57-3,.1-4.66l-9-4.5-.18.3-3.19-3.62a17.63,17.63,0,0,0,0-2.54c-.42-2.81,1.24-4.54,3.1-6.17a2.47,2.47,0,0,1,1.44-.78c3.21.18,6.38-1.66,9.67-.1,1.14.54,2.59.41,4.07.6l3.23,3.66c0,1.27,0,2.27,0,3.26l-.81.81h-7.32l-.82-.82v-2.19c-.72-1.47-1.8-1-2.67-1.1-.34.34-.63.62-.91.91v1.78c1.3,1.27,2.43,2.8,4.53,2.74,1.75,1.42,4,1.82,5.79,3.33S785,171,785,173.2c0,1.29,0,2.58,0,3.76-.66,2.7-3.29,2.86-5.2,4.19-2.59,0-5.37-.13-8.13,0a10.05,10.05,0,0,1-5.68-1.45c-.32-.18-.65-.34-1.08-.56-.87-2.08-2.64-4.05-1.83-6.84l.63-.64Z"/><path class="cls-3" d="M744.6,181.05l-.74-.73V155.41a7.69,7.69,0,0,1,1.84-.48c4.85,0,9.71,0,14.69,0v5.35h-5.51c-1.68,1.34-.6,3.05-1,4.72h6v5.4H754v5.29h7c.15,1.82,0,3.56.09,5.38Z"/><path class="cls-3" d="M453.91,164.94l.93.93v3.72l-.81.81h-5.58V175l.88.81h6.09V181H438.88v-26h15.93v5.13h-5.48l-.91.92v3.13l.72.71Z"/><path class="cls-3" d="M400.1,180.42c-3.48.51-6.76-.53-9.88.73-.53-2.19-.66-14-.3-26.13H406.5c.14,1.6,0,3.33.07,5.17h-6.43V165h5.11v5.41H400.1Z"/><path class="cls-3" d="M432,160.17c-.52.52-.73.74-1,1v20c-3.31-1.24-6.63-.32-10.09-.75V160.28h-5.28v-5.23h20.64c.17.18.38.39.67.67v3.74l-.72.71Z"/><path class="cls-3" d="M648.3,180V156.1h14.46a.52.52,0,0,0,.26-.1,1.34,1.34,0,0,0,.2-.21v-.88h1.14c.11,1.57,0,3.17,0,4.77-1.06,0-2.14,0-3.2,0a14.44,14.44,0,0,0-3.36.15v5.22h3c.24.2.46.54.72.57.75.07,1.51,0,2.27,0,.2.24.55.47.57.73.07.94,0,1.9,0,2.85h-1.19v1.2h-5.37v6c1.82,0,3.46.09,5.08,0A3.86,3.86,0,0,1,665,177v3Z"/><path class="cls-3" d="M352.84,177v3H336.13V156.1c4-.06,8,.12,11.94-.11v-1.08h4.18v4.17c-1.08,0-2.15,0-3.22,0a13.86,13.86,0,0,0-3.35.15v5.81h3c.23.2.46.54.71.57.75.07,1.51,0,2.27,0v3.58c-.89.05-.51.74-.6,1.2h-5.37V177Z"/><path class="cls-3" d="M736,155v20.67h5.82v5.38H726V155Z"/><path class="cls-3" d="M710.37,156.1v4.05c-1.9.29-3.85,0-5.87.19v20.08a32.86,32.86,0,0,1-4.41.14c-1.69.1-3.38.22-5.23.35V160c-3-.85-3-.85-4.16-.41l-1.81-.49v-3Z"/><path class="cls-3" d="M722.23,181.11h-9.09c-1.19-.58-1-1.53-1-2.4,0-5.85,0-11.7,0-17.55v-5.37L713,155h9.21Z"/><path class="cls-3" d="M536.88,181.05l-.75-.75V155.45a6.74,6.74,0,0,1,1.8-.52c2.67-.06,5.35,0,8.16,0v26.14Z"/><path class="cls-3" d="M645.91,156.1v4c-1.68.42-3.44-.06-5.15.23l-.79.79v19.42h-8.38V160.85L629.75,159h-4V156.1Z"/><path class="cls-3" d="M610.1,156.1v19.09l-.94,1.19h6.31V180H600.55V155.5a4.25,4.25,0,0,0,2.13.63C605.15,156,607.62,156.1,610.1,156.1Z"/><path class="cls-3" d="M645.91,156.1H625.7V159h4l1.84,1.83v19.71l-1.11.86V161c-1.77-.39-3.54,0-5.39-.27-1.43-1.66-.27-3.73-.76-5.72h21.58Z"/><path class="cls-4" d="M710.37,156.1H688.89v-.89c.38-.39,13.33-.52,21.48-.21Z"/><path class="cls-3" d="M648.3,180h17.91v.6a6.72,6.72,0,0,1-1.82.57c-5.3,0-10.59,0-16.09,0Z"/><path class="cls-3" d="M336.13,180h16.71c.23.29.46.57.87,1.1H336.13Z"/><path class="cls-3" d="M600.55,180h14.92v.88c-2.2.4-11.3.47-15.7.1Z"/><path class="cls-4" d="M593.39,156.1H578.46v-.89c.16-.1.32-.29.47-.29,4.75,0,9.5,0,14.46,0Z"/><path class="cls-5" d="M663.22,154.91v.88a1.34,1.34,0,0,1-.2.21.52.52,0,0,1-.26.1H648.3v-.89a1.26,1.26,0,0,1,.2-.2.52.52,0,0,1,.26-.1Z"/><path class="cls-5" d="M348.07,154.91V156c-4,.23-8,0-11.94.11V155C340.1,154.78,344.09,155,348.07,154.91Z"/><path class="cls-3" d="M352.84,177h-7.16v-1.79h6.79l1.28,1.07Z"/><path class="cls-3" d="M345.68,160.87v-1.63a13.86,13.86,0,0,1,3.35-.15c1.07,0,2.14,0,3.22,0l.83.46L352,160.87Z"/><path class="cls-5" d="M610.1,156.1c-2.48,0-5-.07-7.42,0a4.25,4.25,0,0,1-2.13-.63c.25-.2.51-.56.77-.57,2.85,0,5.71,0,8.78,0Z"/><path class="cls-3" d="M665,177a3.86,3.86,0,0,0-2.08-.63c-1.62.12-3.26,0-5.08,0v-1.19h6.79l1.28,1.07Z"/><path class="cls-3" d="M688.89,159.08l1.81.49c1.19-.44,1.19-.44,4.16.41v.89h-5.41C689.26,160.26,689.07,159.67,688.89,159.08Z"/><path class="cls-3" d="M657.85,160.87v-1a14.44,14.44,0,0,1,3.36-.15c1.06,0,2.14,0,3.2,0v1a14.38,14.38,0,0,1-3.35.15C660,160.89,658.92,160.87,657.85,160.87Z"/><path class="cls-3" d="M615.47,176.38h-6.31l.94-1.19h5.37Z"/><path class="cls-3" d="M351.65,165.64c-.76,0-1.52.05-2.27,0-.25,0-.48-.37-.71-.57.58-1.29,1.7-.31,2.53-.59.06,0,.16.06.45.16Z"/><path class="cls-3" d="M663.82,165.64c-.76,0-1.52.05-2.27,0-.26,0-.48-.37-.72-.57.59-1.29,1.71-.31,2.53-.59.07,0,.17.06.46.16Z"/><path class="cls-3" d="M351.05,170.42c.09-.46-.29-1.15.6-1.2l1,1.2Z"/><path class="cls-3" d="M663.22,170.42v-1.2h1.19v1.2Z"/><path class="cls-6" d="M437.86,95.85h5a10.78,10.78,0,0,1,0,1.61c-.07.45-.36.86-.44,1.3a6.75,6.75,0,0,0,0,1.49c.43,6.3-.85,12.54-.68,18.84,0,1.66-.8,3.35-.39,5.25H321c-1.45-2.13-3-4.36-4.46-6.6-.73-1.08-1.38-2.22-2.12-3.29-1.55-2.24-3.1-4.48-4.77-6.64s-3.24-4.43-4.82-6.66c-1.35-1.92-3.39-3.37-4.08-5.75-2-1.2-3-3.27-4.38-5-2-2.44-3.82-5-5.79-7.57h-3.41c0,5.23-.09,10.56,0,15.88s-.59,10.61.67,16c1,1.07,2,2.34,3.79,2.63,1.47.24,2.6,1.46,4.29,1.26.94-.11,2,.48,3.07.79v5H250.85v-5l8.51-.85c1.7-1,3.82-1.5,4.55-3.72v-2.94q0-33,0-65.91a25,25,0,0,0-.42-3.37,24.79,24.79,0,0,0-12.57-4V33.37l.84-.69h49.09v5.77c-1.78.4-3.7.17-5.59.6-1.73.39-3.38,1.1-5.13,1.43L287.76,43c-1.19,4.77-.43,10.28-.55,15.75-.12,6,0,11.9,0,18H290c.05-.17,0-.53.2-.69.63-.6,1.58-.7,1.88-1.88.18-.71,1.45-1.11,2.17-1.73s1.28-1.25,1.91-1.88,1.38-1.44,2.12-2.1a7.85,7.85,0,0,1,2.27-1.71c1-.36.59-1.71,1.84-2,.69-.14,1.09-1.47,1.73-2.16,1.22-1.31,2.52-2.54,3.78-3.81a59.11,59.11,0,0,0,4.33-4.49,44,44,0,0,0,3.3-4.21c.9-1.45,2.4-2.49,3.34-4A10,10,0,0,0,320.5,40a17.42,17.42,0,0,0-8.74-1.35V32.76H351v5.8c-3.62-.34-7,1.08-10.44,1.9a20,20,0,0,0-5.7,2.75A55.34,55.34,0,0,0,324.15,52c-2.68,2.8-5.48,5.49-8.22,8.23-.91.92-1.84,1.82-2.74,2.75a29.1,29.1,0,0,0-2.6,2.77c-.68.94-2.19,1.15-2.22,2.6a5,5,0,0,1-1.2.34c2.07,2.8,3.91,5.43,5.9,7.94,2.75,3.46,5.79,6.7,8.38,10.27,2.82,3.87,5.86,7.53,8.88,11.23,2.54,3.12,5.16,6.18,7.57,9.4a59.17,59.17,0,0,0,4.49,5,26.59,26.59,0,0,0,6,4.24A15.27,15.27,0,0,0,359,119c2.43-.45,5.19.13,7.34-1.65,2.16.31,2.35-1.81,3.06-2.89s.68-2.75.69-4.16q0-31.45,0-62.92a12.18,12.18,0,0,0-1.41-5c-3.32-2.36-7.35-3.37-11.65-3.89v-5.7h79.22V57h-4.64c-.55-1.2-1.16-2.64-1.86-4a32.07,32.07,0,0,0-2.56-4.59c-.67-.92-1.7-1.61-2.46-2.52a25.18,25.18,0,0,0-2.53-2.53A14.41,14.41,0,0,0,419.34,41a14.23,14.23,0,0,0-4-1.22c-7.14-1.22-14.35-.38-21.53-.62-.28,0-.57,0-.93.08V73.78h13c3.62-1.47,7.32-2.58,9.13-6.78,1.22-2.82,2-5.75,3.11-8.66h5V96.39c-1.6.14-3.33,0-4.92.06-.71-2-1.89-3.76-1.91-5.58,0-2.23-2.36-3.32-2-5.48a12.62,12.62,0,0,0-4.7-3.77,14.66,14.66,0,0,0-6.34-1.34c-3.36.23-6.76.06-10.43.06v2.28c0,8.84,0,17.69,0,26.54a12.85,12.85,0,0,0,.9,4.42c.49,1.38,1.78,2.47,2.57,3.5a36.72,36.72,0,0,0,3.85.81c1.28.13,2.69-.29,3.85.11a8.63,8.63,0,0,0,4.54.46c3-.64,6-.31,9-.63,1.5-.16,3-.32,4.52-.59a7.69,7.69,0,0,0,3.38-1.83,22.24,22.24,0,0,0,3.87-4.33,110.33,110.33,0,0,0,5.88-9.5C436.2,99.72,436.88,97.71,437.86,95.85Z"/><path class="cls-7" d="M706.58,88.71H705.3a39.39,39.39,0,0,0-4.64,5.76c-1.19,1.64-2.79,3-3.93,4.65s-3.06,2.64-3.7,4.68c-.07.22-.74.22-.89.47-1.79,2.85-3.89,5.49-5.51,8.45-.82,1.5-1.13,3,0,4.47,3,.81,6,1.93,9.31,2v5.23h-35.7c-.12-1.62,0-3.35-.07-5.33,3.27.52,6-1,8.79-1.94a11.67,11.67,0,0,0,3.91-2.71c.72-.7,1.88-1,2.21-2s2-.78,2-2.11c2-.94,2.8-3,4.37-4.41a19.77,19.77,0,0,0,4.47-5.6,4.16,4.16,0,0,1,.83-.85,57,57,0,0,0,7-8.15c1.84-.82,2.45-2.69,3.59-4.12a52.11,52.11,0,0,1,4-4c.6-2.39-.61-4-2.17-5.36-.14-.63-.09-1.24-.37-1.52-1.63-1.64-2.62-3.7-3.92-5.55-1-1.46-2-3-3.12-4.34s-1.87-2.85-2.85-4.23q-2.68-3.8-5.27-7.66c-.51-.76-.66-1.93-1.34-2.37a6,6,0,0,1-1.76-2.25,19.13,19.13,0,0,0-1.77-2.26,18.54,18.54,0,0,0-2.09-2.4,37.85,37.85,0,0,0-5-3.77,31,31,0,0,0-5.34-2.22,11.71,11.71,0,0,0-5.41-.57v-5.9h54.67l.79.87c-.31,1.52.6,3.36-.76,5a16.07,16.07,0,0,0-3.26,0c-2.36.51-4.85.24-7.09,1.65-.85.55-1.4,1.19-2.13,1.68.92,1.92,1.7,3.69,2.62,5.39s1.89,3.2,2.84,4.79a40,40,0,0,0,2.91,4.44c1.66,2.08,2.83,4.42,4.25,6.61.75,1.16,1.47,2.33,2.29,3.63,2.16-1.53,3.41-3.68,4.89-5.66s3.18-3.59,4.67-5.47S731,52,732.15,49.8s2.8-4,3.89-6.39V41.07a13.92,13.92,0,0,1-2.84-1.52c-1.07-.92-2.4.06-3.58-.86-.74-.57-2.29-.11-3.73-.11.22-2-.55-4,.64-5.9H761v5.69a37.6,37.6,0,0,0-4.14.61c-1.24.31-2.39,1.27-3.6,1.3-1.56,0-1.73,1.91-3.14,1.88-3.07,2.37-6.09,4.8-8.22,8.13a5.19,5.19,0,0,1-.84.85,43.54,43.54,0,0,0-6.51,7.69,6.57,6.57,0,0,1-1.05,1.06,69.26,69.26,0,0,0-6.78,7.92c-1.38,1.83-3,3.46-4.62,5.2l12.13,17.85A104.26,104.26,0,0,0,741.44,101a33.78,33.78,0,0,1,3.54,5.38,32.05,32.05,0,0,0,9.59,9.94,17.29,17.29,0,0,0,5.37,2.13,46.37,46.37,0,0,0,5.22.83v5.11H710.49v-5.09c1.93-.26,4-.67,6.06-.77a10.61,10.61,0,0,0,5.5-1.79c.34-2.67.39-2.69-.95-5.14s-2.65-4.68-4-7c-.72-1.2-1.63-2.29-2.29-3.52-1.92-3.55-4.46-6.69-6.57-10.11C707.71,90.21,707.12,89.47,706.58,88.71Z"/><path class="cls-6" d="M607.11,80.34V93.88c0,3.08,0,6.16,0,9.24,0,3.86-.16,7.73,1.76,12.18,1.33,1.74,3.89,2.63,7,2.66,2.2,0,4.41.49,6.61.52,1.61,0,3.22-.44,4.83-.54s3.26.28,4.75-.11a21.54,21.54,0,0,1,3.36-.53c1-.11,2-.41,3-.61,3.69-2.54,5.72-6.42,8.18-10s4.08-7.26,6-10.81h4.81c-.33,1.77.43,3.51-.62,5.17-.27.43,0,1.17,0,1.77,0,2.68.07,5.37,0,8-.07,2-.45,4-.55,6s0,4.17-.05,6.26c0,.41-.45.81-.69,1.23H571.41v-5.15c1.85-.24,3.82-.46,5.79-.77a14.1,14.1,0,0,0,5.39-2.09,3.16,3.16,0,0,0,1.2-1.85,26.73,26.73,0,0,0,.62-5.11q.06-30.27,0-60.54a23.75,23.75,0,0,0-1.19-6.37c-3.48-2.6-7.53-3.5-11.83-4.11V32.67h79l.76.76V56.35h-5.61a28.77,28.77,0,0,0-12.91-15.94l-4.63-.89a10.71,10.71,0,0,0-1.65-.33c-6.35,0-12.71,0-19.18,0v34.5c.63,0,1.39.09,2.14.09,3,0,6,0,8.95,0a13,13,0,0,0,6.45-1.73,9.28,9.28,0,0,0,3.77-3.53,73.36,73.36,0,0,0,3.62-8.32,5.26,5.26,0,0,0,0-1.83h5.23v38h-5a11.51,11.51,0,0,0-.66-2.38c-.35-.67-.1-1.4-.68-2.14-.76-.94-.84-2.4-1.29-3.61-1-2.63-2.43-4.95-5.14-6.16a14.93,14.93,0,0,0-6.74-1.77C614.36,80.44,610.8,80.34,607.11,80.34Z"/><path class="cls-6" d="M547.56,39.89c-4.17-.34-8.53-1.09-13.07-.6,0,0,0,0-.09.09a.49.49,0,0,0-.1.25q0,36.53,0,73c.86,1.92,1.74,3.8,4,4.55,1,.23,2.11,0,3.23.67a10.53,10.53,0,0,0,3,.66c1.09.24,2.18.51,3.42.8v4.86c-2.43.47-38.13.65-49.92.22v-5.1c3.66-.6,7.56-.66,11.24-2.29a11.29,11.29,0,0,0,2.43-7.53c-.09-22.36-.05-44.72-.05-67.08V39.3a48.36,48.36,0,0,0-15.26,1.15,34.08,34.08,0,0,0-7.14,8.9c-1.77,3.23-3.83,6.33-4.51,10.06h-5.22V32.77h86.94V59.36c-1.61.3-3.36,0-4.9.13-1.38-2.84-2.73-5.46-3.93-8.14a36.69,36.69,0,0,0-5.76-8.57A9,9,0,0,0,547.56,39.89Z"/><path class="cls-8" d="M132.65,4.58c1.54,0,3.23,0,4.92,0a10.07,10.07,0,0,1,5.15,1.24,5.55,5.55,0,0,0,2.91.53c1.55.7,2.7,1.56,3.91,1.68,3,.29,5.32,2.11,8.08,2.91,1.48.43,3.16.56,4.45,1.43s2.94,1.11,4.35,1.78a37.53,37.53,0,0,0,4.43,1.55,41.35,41.35,0,0,0,4.09,1.62,59.18,59.18,0,0,1,7.77,2.88,43.87,43.87,0,0,1,9,5,7.69,7.69,0,0,1,1.69,1.68c.64.81,1.18,1.71,1.86,2.7.37,1.13.81,2.44,1.23,3.76.72,2.31,1.84,4.51,1.79,7,1.18,1.44.36,3.29,1.09,4.92s.26,3.45.78,5.05a17.46,17.46,0,0,1,.54,3.95,15.58,15.58,0,0,0,.61,3.62c.51,1.5.37,3,.64,4.53a37,37,0,0,0,.61,4.5c.89,2.81.58,5.81,1.7,8.53-.51,3.24,1.6,6.13,1.19,9.35,1,2.75.58,5.76,1.72,8.53.6,1.45.45,3.19.68,4.79.15,1,.4,2,.58,3s-.19,1.83.52,2.79c.56.75-.37,2.11.65,3,.2.17,0,.77,0,1.16.41,3.17.44,6.41,1.69,9.44a2.61,2.61,0,0,1,.09.85,35.11,35.11,0,0,0,.67,6.29c.75,2.62.59,5.41,1.69,7.94a4.05,4.05,0,0,1,0,1.48,14.74,14.74,0,0,0,.52,4.25,39.72,39.72,0,0,1,.8,4.78c.36,2-.05,4.19.59,6,.79,2.19.27,4.26.44,6.36a40.88,40.88,0,0,1,0,6.26,23.61,23.61,0,0,1-1.7,7.34,11.15,11.15,0,0,1-2.26,3.24,5.16,5.16,0,0,1-3.79,1.64,20.89,20.89,0,0,1-5.36,0c-3.85-.8-7.91-.57-11.58-2.26a2.49,2.49,0,0,0-.87-.07,47.72,47.72,0,0,1-6.89-.69c-1.35-.31-2.81-.2-4.08-.91a3.6,3.6,0,0,0-1.41-.19,55.2,55.2,0,0,1-7.2-.66,30.84,30.84,0,0,0-8.48-1.13c-1.11-.8-2.39-.63-3.63-.58a13.7,13.7,0,0,1-3.31-.74,30.65,30.65,0,0,0-4.85-.48c-1.52-.07-2.94-1-4.52-.59-1.18-1.36-3.11.19-4.32-1.12-.15-.15-.57-.05-.86-.07a46.22,46.22,0,0,1-6.89-.69c-1.35-.32-2.83-.15-4.07-.93a1.48,1.48,0,0,0-.83-.16,22.19,22.19,0,0,1-6-.59c-1.84-.35-3.66-.7-5.49-1.14a29.4,29.4,0,0,0-6.3-.62,16.07,16.07,0,0,1-3-.62,23.25,23.25,0,0,1-3.06-.51c-1.77-.6-3.82-.33-5.68-.74-3-.68-6.23-.36-9.12-1.72a2.05,2.05,0,0,0-1.18,0c-2.66.44-5.23-.42-7.8-.72-3-.35-6.05-.77-9-1.22-2.54-.39-5.25-.41-7.66-1.62a3.28,3.28,0,0,0-1.47,0,23.5,23.5,0,0,1-7-1.21,9.69,9.69,0,0,0-3-.63,5.12,5.12,0,0,1-2.13-.56c-1.61-.7-3.36-1-4.93-1.78s-3.17-1.51-4.68-2.4c-2.47-1.48-5.94-5.95-6.25-8.63a17.43,17.43,0,0,1,.6-8.36,18.1,18.1,0,0,0,1.17-3.7c.2-1.14,1.06-2.12,1.55-3.22A72,72,0,0,1,46.4,110c2.19-3.08,5-5.71,6.85-9a29.17,29.17,0,0,1,3.1-3.79C59.16,93.78,62,90.41,64.77,87c2.32-2.92,4.67-5.81,7-8.76C74.21,75,77,72,79.17,68.47a27.39,27.39,0,0,1,3.35-4A96.94,96.94,0,0,0,91,53.68a27,27,0,0,1,3.81-4.38c1.74-1.6,2.87-3.67,4.46-5.41a33.6,33.6,0,0,0,4.17-5.59,23.28,23.28,0,0,1,3.34-4,42.93,42.93,0,0,0,3.83-5c1.11-1.56,2.56-2.89,3.8-4.38q2.7-3.19,5.21-6.52c1.6-2.11,3.17-4.24,4.73-6.36A44.08,44.08,0,0,1,130,6.39,21.16,21.16,0,0,1,132.65,4.58Zm25.13,23.94c-1.07,1.51-2.42,2.44-3.33,3.91-1.63,2.6-3,5.34-4.51,8-1.37,2.39-2.16,5.15-3.71,7.39-2,2.85-3.46,5.94-5.2,8.91a16.5,16.5,0,0,1-.88,2C138,61.54,136.64,64.83,135,68s-3.73,6.16-5.24,9.46c-1,2.26-2.56,4.3-3.74,6.5a63.24,63.24,0,0,0-3.11,8,7.54,7.54,0,0,0,4.53,9.75c2.05.77,4,1.93,6.24,2.28s4.16,1.74,6.53,1.51c.3,0,.64.49,1,.5,2.58.06,4.9,1.61,7.55,1.29.41,0,.86.29,1.3.42,2.22.65,4.42,1.41,6.67,1.89,1.19.26,2.42.2,3.64.57a32.43,32.43,0,0,0,3.68,1.16,18.2,18.2,0,0,1,3.61.73,17.39,17.39,0,0,0,7.87,1.15,4.28,4.28,0,0,0,3.14-1.91c1.51-1.9.53-4.13,1.5-6a3.32,3.32,0,0,0,.17-1.7c-.16-2.31-.38-4.61-.58-6.92a31.71,31.71,0,0,0-.71-6.28,18.17,18.17,0,0,1-.49-3.36c-.17-1.22-.4-2.42-.59-3.63a8.82,8.82,0,0,0-.49-2.79c-.63-1.3-.55-3-.7-4.47-.23-2.5-.4-5-.6-7.51,0-.1,0-.23,0-.29-1.2-1.43-.25-3.33-1.12-4.92a9.51,9.51,0,0,1-.65-3.59c-.25-2.6-.41-5.2-.61-7.81,0-.19.06-.49,0-.56-.93-.67-.41-1.64-.56-2.47a14,14,0,0,1-.56-2.74,45.6,45.6,0,0,0-1.18-8.46,10.68,10.68,0,0,0-5.59-8.11,8.73,8.73,0,0,1-1.39-1.19,10.21,10.21,0,0,1-3.29-.48C160.24,27.65,159,28.28,157.78,28.52ZM76.27,141.78c1.58-6,1-12.1,2.91-18,.34.56.62,1,.89,1.47,1.27,2.16,1.34,4.63,1.79,7a19.56,19.56,0,0,0,.34,1.93c.72,2.62,1.14,5.31,1.58,7.52l1.28,1.84H88.7c1-1.57,1.92-3.06,2.84-4.57a24.81,24.81,0,0,0,2.78-5.39,4.25,4.25,0,0,1,1-2,5.87,5.87,0,0,0,.85-1.13c1.13-2,2.23-3.94,3.34-5.91,0,1,.34,1.93-.07,3.07a14.24,14.24,0,0,0-.93,4.7,43.9,43.9,0,0,1-1,6.11c-.33,2.23-1.31,4.46-.6,6.79h4.6c-.07-1.58.81-2.84.68-4.36a9.79,9.79,0,0,1,.59-4.19,13.74,13.74,0,0,0,.55-4.24c.11-1.42.66-2.75.64-4.23a9.49,9.49,0,0,1,.76-4.13c.7-1.48.12-2.83.41-4.21L97.33,119c-1.86,3.09-3.62,5.81-5.19,8.64s-3,5.84-4.71,9.15c-1.38-6.94-2.68-13.45-4-20-1.27-.24-2.55-.53-3.85-.72s-2.78-.29-4.17-.43a3.29,3.29,0,0,0-.14.5c-.36,2.82-1.66,5.51-1.2,8.45-1.15,2.4-.31,5.27-1.79,7.6.44,2.93-.92,5.75-.57,8.66l1.66.86ZM131,123.9a7.92,7.92,0,0,0-.78,2c-.28,2.29-.43,4.6-.63,6.9,0,.29.13.74,0,.87-1,.88-.1,2.28-.65,3-.88,1.15-.29,2.28-.52,3.39s-.42,2-.6,3c-.36,2.1-.69,4.2-1,6.31,1.7.4,3.37,1.26,5,.63.55-2.68,1-5.15,1.53-7.5,3.21-.58,6,.27,8.82,1.3,1,1.6,1.55,2.57,1.21,3-1.19,1.65-.27,3.36-.56,5,1.06.29,1.87,0,2.73.61a1.88,1.88,0,0,0,2.61-.81,28.48,28.48,0,0,1,.53-5.33,3.06,3.06,0,0,0-2.14-4.07c-.09,0-.1-.34-.22-.77l1.68-.37,1.72-1.79c1.17-3.32.81-6.55.84-9.73a8.52,8.52,0,0,0-5.14-3.37c-1.33-.28-2.84-.05-3.89-.61-1.35-.71-2.78,0-3.9-.67-1.34-.8-2.7-.16-4-.42C132.73,124.31,131.92,124.1,131,123.9Zm38.51,10.72a31.63,31.63,0,0,1,3.35,0c1.21.12,2.4.45,3.61.69l1.58,1.46v2.41l4.39.8.86-1c-.23-.79.31-1.79-.47-2.85-.56-.76-.54-2-.87-3.32a11.26,11.26,0,0,0-2.85-1.7,24.72,24.72,0,0,0-6.94-1.26c-2,0-4,0-5.72,0L163.89,132c-1.71,1.16-.42,3.13-1.3,4.74s.17,3.32.64,5l1.89,1.9a3.15,3.15,0,0,1,1.19,0,19.07,19.07,0,0,0,6.71,1.87c1.35.1,3,.57,3.68,2v3a8.94,8.94,0,0,1-.69.69c-1.3,1-2.4,1.91-4.34.87-1.33-.71-3.15-.53-4-.65l-2.29-1.66.79-2.22-1.71-.88h-3l-.71.7a7.94,7.94,0,0,0,1.35,6.26c4.6,2.82,9.73,3.37,14.77,3.06l3.08-1.58c2.72-6,2.55-4.8,1.64-9.7a7.47,7.47,0,0,0-5.59-3.51c-1.29-.23-2.61-.4-3.91-.67a8.32,8.32,0,0,1-5-2.83C167.91,137,167.8,135.36,169.53,134.62ZM57.05,113c-1.09,3.19-3.2,5.62-4.31,8.58-.57,1.54-1.93,2.81-2.4,4.36-.56,1.82-2.05,2.9-2.86,4.49a65.84,65.84,0,0,0-2.85,7.47c2.12-1,3.67.82,5.3.24a16.39,16.39,0,0,0,2.22-4.63c2.08-.52,3.91.29,5.72.75s3.78.18,5.35,1.14l.9,4.45c1.76.31,3.42,1.34,5.19.44a19.18,19.18,0,0,1-.57-2.26c-.24-2.1-.41-4.2-.61-6.31a2.69,2.69,0,0,0-.14-.54,22.66,22.66,0,0,1-1.11-4.92c-.33-2.51-1-5-1.22-7.53,0-.53-.49-1-.48-1.57a4.71,4.71,0,0,0-.91-3.33Zm66.58,32c-4.18-1.58-8.44-1.28-12.69-2.37.47-2.07.93-4.15,1.44-6.41,2.1.51,4.05.79,6,1.09s3.8,1.25,5.79.74V133.3c-3.75-.58-7.53-.8-11.06-1.86l.56-5.06c4.31-.56,8.52.61,12.74,1.11l.74-4.12c-1.47-.08-2.84-1.05-4.42-.67s-2.79-.57-4.23-.63a30.07,30.07,0,0,1-4.52-.59c-1.49-.3-2.92-.92-4.55-.43a13.58,13.58,0,0,0-.64,3.24,15,15,0,0,1-.65,3.63c-.24,1.2-.46,2.42-.59,3.63-.24,2.2-.41,4.41-.62,6.61a3.62,3.62,0,0,1-.17.53c-.69,2.56-1.4,5.13-.88,7.74,1.43.26,2.73.56,4,.71,2.2.25,4.5.09,6.58.72,1.35.41,2.78,0,3.9.62a5.52,5.52,0,0,0,3.24.35Zm86.29,12.33c-1.81-.23-3.61-.44-5.41-.68s-3.74-.52-5.71-.8c1.55-6.79,2-13.72,3.6-20.42-1.72-1.17-3.51-.84-5.17-.8-.29,1.42-.6,2.6-.75,3.81s-.31,2.24-.48,3.34-.68,2.36-.75,3.59a7.43,7.43,0,0,1-.49,3.37c-.53,1,.05,2.61-.45,3.67s.06,2.2-.63,3.33c-.56.92-.11,2.45-.11,3.71,2.57.4,5.1,1,7.73.79.28,0,.71-.1.85.05,1.1,1.21,2.59.24,3.87.75a17.15,17.15,0,0,0,4.17.54C209.81,160.08,211.84,158.87,209.92,157.37Zm-17-23.79c-1.79-1.28-3.58-.5-5.51-.83.42,2.32-.92,4.25-.54,6.4,0,.19.07.47,0,.57-1.18,1.11.08,2.9-1.14,4l-.6,6.28a5.31,5.31,0,0,1-.12,1.14,16.67,16.67,0,0,0-1,6.88l4.7.66c1-2.89.67-5.79,1.42-8.51a35.33,35.33,0,0,0,1.49-8C191.71,139.3,192.73,136.62,193,133.58ZM160,143c-1.52-.15-2.81,0-4.15-.56-1.12-.51-2.57-.31-4.05-.45l-1.18,1.16v2.12a58.44,58.44,0,0,0,9.38,1.28Z"/><path class="cls-9" d="M157.78,28.52c1.22-.24,2.46-.87,3.39-.57a10.21,10.21,0,0,0,3.29.48,8.73,8.73,0,0,0,1.39,1.19,10.68,10.68,0,0,1,5.59,8.11,45.6,45.6,0,0,1,1.18,8.46,14,14,0,0,0,.56,2.74c.15.83-.37,1.8.56,2.47.1.07,0,.37,0,.56.2,2.61.36,5.21.61,7.81a9.51,9.51,0,0,0,.65,3.59c.87,1.59-.08,3.49,1.12,4.92.05.06,0,.19,0,.29.2,2.5.37,5,.6,7.51.15,1.51.07,3.17.7,4.47a8.82,8.82,0,0,1,.49,2.79c.19,1.21.42,2.41.59,3.63a18.17,18.17,0,0,0,.49,3.36,31.71,31.71,0,0,1,.71,6.28c.2,2.31.42,4.61.58,6.92a3.32,3.32,0,0,1-.17,1.7c-1,1.86,0,4.09-1.5,6a4.28,4.28,0,0,1-3.14,1.91,17.39,17.39,0,0,1-7.87-1.15,18.2,18.2,0,0,0-3.61-.73,32.43,32.43,0,0,1-3.68-1.16c-1.22-.37-2.45-.31-3.64-.57-2.25-.48-4.45-1.24-6.67-1.89-.44-.13-.89-.47-1.3-.42-2.65.32-5-1.23-7.55-1.29-.32,0-.66-.53-1-.5-2.37.23-4.34-1.17-6.53-1.51s-4.19-1.51-6.24-2.28a7.54,7.54,0,0,1-4.53-9.75,63.24,63.24,0,0,1,3.11-8c1.18-2.2,2.71-4.24,3.74-6.5,1.51-3.3,3.58-6.26,5.24-9.46s2.93-6.41,5.12-9.22a16.5,16.5,0,0,0,.88-2c1.74-3,3.22-6.06,5.2-8.91,1.55-2.24,2.34-5,3.71-7.39,1.52-2.65,2.88-5.39,4.51-8C155.36,31,156.71,30,157.78,28.52Zm-15,29.76c-.9.83-1.48,1.16-1.76,1.67-1.09,1.92-2.08,3.9-3.1,5.86s-2.15,4.08-3.14,6.15c-1.68,3.5-4,6.63-5.53,10.23-.74,1.78-1.8,3.42-2.71,5.13-1.46,2.78-2.84,5.58-2.17,8.82,1.47,3.23,4.41,4.69,7.45,5.56,1.86.52,3.71,1.16,5.6,1.62.36.09.71.22,1.08.28a8.41,8.41,0,0,1,2.51.4c.87.47,2.06-.35,2.66.79,1.71-.35,3.27,1.34,5.22.28a18.36,18.36,0,0,1-.74-6.49c-1.12-1-.14-2.35-.65-3.3-.71-1.32-.41-2.63-.55-4s-.43-2.62-.58-3.93a39.35,39.35,0,0,0-.67-6c-.78-2.8-.59-5.66-1.1-8.47-.33-1.78-.05-3.77-.75-5.35-.53-1.21,0-2.4-.53-3.35a7.65,7.65,0,0,1-.54-3.66C142.72,60,142.74,59.46,142.74,58.28Z"/><path class="cls-10" d="M76.27,141.78H73.4l-1.66-.86c-.35-2.91,1-5.73.57-8.66,1.48-2.33.64-5.2,1.79-7.6-.46-2.94.84-5.63,1.2-8.45a3.29,3.29,0,0,1,.14-.5c1.39.14,2.79.24,4.17.43s2.58.48,3.85.72c1.29,6.51,2.59,13,4,20,1.69-3.31,3.11-6.28,4.71-9.15s3.33-5.55,5.19-8.64l7.84.83c-.29,1.38.29,2.73-.41,4.21a9.49,9.49,0,0,0-.76,4.13c0,1.48-.53,2.81-.64,4.23a13.74,13.74,0,0,1-.55,4.24,9.79,9.79,0,0,0-.59,4.19c.13,1.52-.75,2.78-.68,4.36h-4.6c-.71-2.33.27-4.56.6-6.79a43.9,43.9,0,0,0,1-6.11,14.24,14.24,0,0,1,.93-4.7c.41-1.14,0-2.05.07-3.07-1.11,2-2.21,3.94-3.34,5.91a5.87,5.87,0,0,1-.85,1.13,4.25,4.25,0,0,0-1,2A24.81,24.81,0,0,1,91.54,139c-.92,1.51-1.86,3-2.84,4.57H85.06l-1.28-1.84c-.44-2.21-.86-4.9-1.58-7.52a19.56,19.56,0,0,1-.34-1.93c-.45-2.38-.52-4.85-1.79-7-.27-.46-.55-.91-.89-1.47C77.32,129.68,77.85,135.79,76.27,141.78Z"/><path class="cls-10" d="M131,123.9c.9.2,1.71.41,2.53.58,1.31.26,2.67-.38,4,.42,1.12.68,2.55,0,3.9.67,1,.56,2.56.33,3.89.61a8.52,8.52,0,0,1,5.14,3.37c0,3.18.33,6.41-.84,9.73l-1.72,1.79-1.68.37c.12.43.13.74.22.77a3.06,3.06,0,0,1,2.14,4.07,28.48,28.48,0,0,0-.53,5.33,1.88,1.88,0,0,1-2.61.81c-.86-.61-1.67-.32-2.73-.61.29-1.61-.63-3.32.56-5,.34-.46-.17-1.43-1.21-3-2.79-1-5.61-1.88-8.82-1.3-.48,2.35-1,4.82-1.53,7.5-1.59.63-3.26-.23-5-.63.35-2.11.68-4.21,1-6.31.18-1,.39-2,.6-3s-.36-2.24.52-3.39c.55-.71-.36-2.11.65-3,.15-.13,0-.58,0-.87.2-2.3.35-4.61.63-6.9A7.92,7.92,0,0,1,131,123.9Zm12.6,14.9c2.28-1.8,2.14-4.35,2.1-6.79l-1.83-1.9-8.74-1.27a29.7,29.7,0,0,0-.71,4.62c0,1.59-1.41,3.06-.38,4.73a21.91,21.91,0,0,1,4.22.51C140,139.12,141.83,138.8,143.62,138.8Z"/><path class="cls-10" d="M169.53,134.62c-1.73.74-1.62,2.4-2.4,3.75a8.32,8.32,0,0,0,5,2.83c1.3.27,2.62.44,3.91.67a7.47,7.47,0,0,1,5.59,3.51c.91,4.9,1.08,3.74-1.64,9.7l-3.08,1.58c-5,.31-10.17-.24-14.77-3.06a7.94,7.94,0,0,1-1.35-6.26l.71-.7h3l1.71.88-.79,2.22,2.29,1.66c.85.12,2.67-.06,4,.65,1.94,1,3,.1,4.34-.87a8.94,8.94,0,0,0,.69-.69v-3c-.67-1.46-2.33-1.93-3.68-2a19.07,19.07,0,0,1-6.71-1.87,3.15,3.15,0,0,0-1.19,0l-1.9-1.9c-.46-1.64-1.47-3.43-.63-5s-.41-3.58,1.3-4.74l2.58-2.12c1.76,0,3.74,0,5.72,0a24.72,24.72,0,0,1,6.94,1.26,11.26,11.26,0,0,1,2.85,1.7c.33,1.37.31,2.56.87,3.32.78,1.06.24,2.06.47,2.85l-.86,1-4.39-.8V136.8l-1.58-1.46c-1.21-.24-2.4-.57-3.61-.69A31.63,31.63,0,0,0,169.53,134.62Z"/><path class="cls-10" d="M57.05,113l7.22.83a4.71,4.71,0,0,1,.91,3.33c0,.52.43,1,.48,1.57.22,2.55.89,5,1.22,7.53A22.66,22.66,0,0,0,68,131.2a2.69,2.69,0,0,1,.14.54c.2,2.11.37,4.21.61,6.31a19.18,19.18,0,0,0,.57,2.26c-1.77.9-3.43-.13-5.19-.44l-.9-4.45c-1.57-1-3.54-.67-5.35-1.14s-3.64-1.27-5.72-.75a16.39,16.39,0,0,1-2.22,4.63c-1.63.58-3.18-1.27-5.3-.24a65.84,65.84,0,0,1,2.85-7.47c.81-1.59,2.3-2.67,2.86-4.49.47-1.55,1.83-2.82,2.4-4.36C53.85,118.64,56,116.21,57.05,113Zm3,4.83-5.72,11,.84.83,7.63.82c-.22-1.5-.36-2.78-.6-4.05s-.67-2.5-.89-3.77-.3-2.65-.44-4Z"/><path class="cls-10" d="M123.63,145v3.79a5.52,5.52,0,0,1-3.24-.35c-1.12-.59-2.55-.21-3.9-.62-2.08-.63-4.38-.47-6.58-.72-1.31-.15-2.61-.45-4-.71-.52-2.61.19-5.18.88-7.74a3.62,3.62,0,0,0,.17-.53c.21-2.2.38-4.41.62-6.61.13-1.21.35-2.43.59-3.63a15,15,0,0,0,.65-3.63,13.58,13.58,0,0,1,.64-3.24c1.63-.49,3.06.13,4.55.43a30.07,30.07,0,0,0,4.52.59c1.44.06,2.73,1,4.23.63s3,.59,4.42.67l-.74,4.12c-4.22-.5-8.43-1.67-12.74-1.11l-.56,5.06c3.53,1.06,7.31,1.28,11.06,1.86v4.79c-2,.51-3.87-.45-5.79-.74s-3.89-.58-6-1.09c-.51,2.26-1,4.34-1.44,6.41C115.19,143.76,119.45,143.46,123.63,145Z"/><path class="cls-10" d="M209.92,157.37c1.92,1.5-.11,2.71.27,4.25a17.15,17.15,0,0,1-4.17-.54c-1.28-.51-2.77.46-3.87-.75-.14-.15-.57-.08-.85-.05-2.63.26-5.16-.39-7.73-.79,0-1.26-.45-2.79.11-3.71.69-1.13.12-2.24.63-3.33s-.08-2.65.45-3.67a7.43,7.43,0,0,0,.49-3.37c.07-1.23.56-2.38.75-3.59s.35-2.22.48-3.34.46-2.39.75-3.81c1.66,0,3.45-.37,5.17.8-1.59,6.7-2.05,13.63-3.6,20.42,2,.28,3.84.55,5.71.8S208.11,157.14,209.92,157.37Z"/><path class="cls-10" d="M193,133.58c-.22,3-1.24,5.72-1.35,8.61a35.33,35.33,0,0,1-1.49,8c-.75,2.72-.43,5.62-1.42,8.51L184,158a16.67,16.67,0,0,1,1-6.88,5.31,5.31,0,0,0,.12-1.14l.6-6.28c1.22-1.09,0-2.88,1.14-4,.11-.1.08-.38,0-.57-.38-2.15,1-4.08.54-6.4C189.37,133.08,191.16,132.3,193,133.58Z"/><path class="cls-11" d="M160,143v3.55a58.44,58.44,0,0,1-9.38-1.28v-2.12l1.18-1.16c1.48.14,2.93-.06,4.05.45C157.17,143.07,158.46,142.87,160,143Z"/><path class="cls-12" d="M143.62,138.8c-1.79,0-3.66.32-5.34-.1a21.91,21.91,0,0,0-4.22-.51c-1-1.67.36-3.14.38-4.73a29.7,29.7,0,0,1,.71-4.62l8.74,1.27,1.83,1.9C145.76,134.45,145.9,137,143.62,138.8Z"/><path class="cls-12" d="M60,117.85l.82.82c.14,1.35.22,2.69.44,4s.64,2.5.89,3.77.38,2.55.6,4.05l-7.63-.82-.84-.83Z"/><path class="cls-3" d="M369.21,155.08a60.1,60.1,0,0,1,6.23-.72,18.76,18.76,0,0,1,5.39.62,7.21,7.21,0,0,1,3.47,2.26,8.23,8.23,0,0,1,1.83,3.4,24,24,0,0,1,.44,5.44c-.05,3.7-.23,7.39-.36,10.95-1.67,1.77-3.25,3.25-5.5,3.74a11.73,11.73,0,0,1-1.93.37c-2.28,0-4.56,0-6.85,0a9.08,9.08,0,0,1-7.09-3.65,5.36,5.36,0,0,1-.89-3.17c-.1-4.16-.08-8.33,0-12.5a19.76,19.76,0,0,1,.71-3.38Zm7.8,4.86c-1.6-1.19-1.93-1.19-3.49,0v16.29l1.84,1.6L377,176.1Z"/></svg>