<?xml version="1.0" encoding="utf-8"?>
<!-- Generator: Adobe Illustrator 24.0.1, SVG Export Plug-In . SVG Version: 6.00 Build 0)  -->
<svg version="1.1" id="Layer_1" xmlns="http://www.w3.org/2000/svg" xmlns:xlink="http://www.w3.org/1999/xlink" x="0px" y="0px"
	 viewBox="0 0 226.8 214.9" style="enable-background:new 0 0 226.8 214.9;" xml:space="preserve">
<style type="text/css">
	.st0{fill:#FFFFFF;}
</style>
<g id="uRAwLW_2_">
	<g>
		<path class="st0" d="M120.9,0.1c1.5,0,2.8,0,3.5,0c1,0.9,1.7,1.8,2.5,2.2c7,3.8,14.1,7.6,21.5,11.6c-2,1-3.7,1.8-5.4,2.6
			c-5.5,2.6-10.9,5.2-16.4,7.7c-1,0.5-1.4,1.1-1.4,2.2c0,9.3,0,18.5,0,27.8c0,0.8,0.2,1.7,0.5,2.4c12.7,25.5,25.5,51,38.2,76.5
			c0.6,1.3,0.7,2.2,0,3.5c-8.2,15.3-16.4,30.7-24.6,46.1c-5.4,10.1-10.8,20.3-16.1,30.4c-0.7,1.3-1.4,1.8-2.8,1.6
			c-0.3-0.1-0.6-0.1-1,0c-2,0.3-3-0.4-3.8-2.4c-5.4-12.7-10.9-25.4-16.5-38.1c-5.7-13-11.2-26-17.2-38.8c-1.6-3.4-0.8-5.7,0.8-8.4
			c0.3-0.5,0.6-1,0.8-1.5c0.4-0.9,0.8-1.1,1.8-0.8c7.1,2.6,13.5,1.3,19.3-3.5c0.5-0.4,1.4-0.5,2.1-0.5c8.3,0.5,14.7-2.7,18.9-9.9
			c1.9-3.2,2.5-6.8,2.3-10.5c-0.1-1.4,0.1-2.9,0.6-4.2c4.1-11-2.4-22.5-13.9-24.6c-0.6-0.1-1.2-0.3-2-0.6c1.8-3.4,3.4-6.5,5.1-9.6
			c0.1-0.3,0.3-0.6,0.5-0.8c2.1-3.1,2.7-6.5,2.6-10.3c-0.2-16-0.1-32-0.1-48.1C120.9,1.6,120.9,0.9,120.9,0.1z"/>
		<path class="st0" d="M56.4,108.7c15.5,35.5,30.9,70.6,46.3,105.9c-34.2,0-68.2,0-102.6,0C18.9,179.3,37.6,144.2,56.4,108.7z"/>
		<path class="st0" d="M183.2,127.7c14.6,29.2,29,58,43.5,86.9c-30,0-59.7,0-89.7,0C152.4,185.7,167.7,156.9,183.2,127.7z"/>
		<path class="st0" d="M23.3,47.9c-0.5-3.1,0.2-5.7,3.1-6.7c2.1-0.7,3-1.9,3.9-3.7c1.6-3.1,5.2-4.4,8.5-3.5c0.6,0.2,1.2,0.4,1.9,0.6
			c1.9-2.9,4.5-4.5,8.1-3.7c3.4,0.7,5.1,3.1,5.8,6.5c4.7-1.5,8.8-1.1,11.4,3.6c2,3.5,1.2,6.8-2.3,10.6c2.3,6.4,1.6,10.3-2.5,13.1
			c-4,2.7-8.1,2.2-12.7-1.8c-0.9,4.8-3.4,8.2-8.5,8.6c-5.5,0.5-8.6-2.6-10.1-7.8c-4,3.1-8.1,3.8-12.2,0.8c-3.3-2.4-4.5-5.9-3.4-9.8
			C15.3,50.4,18.6,48.3,23.3,47.9z"/>
		<path class="st0" d="M116.7,96.4c2.5,5.3,1.8,9.7-1.9,12.7c-3.9,3.1-8.2,2.6-13.2-1.5c-1,4.8-3.5,8.2-8.6,8.6
			c-5.5,0.4-8.6-2.7-10-7.9c-3.7,3.1-7.6,3.8-11.7,1.3c-3.3-2.1-4.8-5.4-4.1-9.2c0.9-5.1,4.4-7.5,9.4-7.9c-0.2-4.8,1.3-6.8,5.6-7.3
			c3.1-6.5,5.8-7.9,11.6-5.9c4-6,12.3-5.1,14.1,2.8c5.3-1.4,8.7-0.5,11,3C121,88.6,120.4,92.1,116.7,96.4z"/>
		<path class="st0" d="M186.3,45.9c1.9-3,4.6-4.4,8.1-3.6c3.4,0.7,5.1,3.2,5.7,6.4c5.8-1.3,9.1-0.4,11.2,3.1c2.2,3.7,1.6,7-2.1,11.2
			c2.3,5.9,1.8,9.7-1.9,12.6c-2,1.7-4.5,2.6-6.9,2c-2.3-0.6-4.4-2.1-6.5-3.1c-0.6,4.5-3.1,7.8-8.2,8.3c-5.6,0.6-8.7-2.7-10.2-7.9
			c-3.8,3.2-7.9,3.8-12,1.1c-3-2-4.5-5.7-3.8-9.2c1-4.9,4.3-7.3,8.8-7.7c0.6-1.9,0.7-3.9,1.7-5.2c1-1.3,2.9-1.9,4.8-3.1
			C176.9,45.6,179.6,44.3,186.3,45.9z"/>
	</g>
</g>
</svg>
