<svg id="Layer_1" data-name="Layer 1" xmlns="http://www.w3.org/2000/svg" viewBox="0 0 191.68 198"><defs><style>.cls-1{fill:#231f20;}.cls-2{fill:#ec2027;}.cls-3{fill:#fff;}</style></defs><title>PDF</title><path class="cls-1" d="M179,199H48.71A13.68,13.68,0,0,1,35,185.33V14.68A13.68,13.68,0,0,1,48.71,1h85.15a3.86,3.86,0,0,1,2.62,1l55,51.42a3.83,3.83,0,0,1,1.22,2.8V185.33A13.69,13.69,0,0,1,179,199ZM48.71,8.65a6,6,0,0,0-6,6V185.33a6,6,0,0,0,6,6H179a6,6,0,0,0,6-6V57.91L132.35,8.65Z" transform="translate(-1.02 -1)"/><path class="cls-1" d="M186,61.6H139.87A10.61,10.61,0,0,1,129.27,51V7a3.83,3.83,0,0,1,7.65,0V51a3,3,0,0,0,3,3H186a3.83,3.83,0,0,1,0,7.65Z" transform="translate(-1.02 -1)"/><rect class="cls-2" x="1.61" y="53.44" width="101.88" height="49.59" rx="4.09" ry="4.09"/><path class="cls-3" d="M100.43,105.64H6.72A5.7,5.7,0,0,1,1,100V58.53a5.71,5.71,0,0,1,5.7-5.7h93.71a5.7,5.7,0,0,1,5.69,5.7V100A5.69,5.69,0,0,1,100.43,105.64ZM6.72,56.05a2.48,2.48,0,0,0-2.48,2.48V100a2.48,2.48,0,0,0,2.48,2.47h93.71A2.48,2.48,0,0,0,102.9,100V58.53a2.48,2.48,0,0,0-2.47-2.48Z" transform="translate(-1.02 -1)"/><path class="cls-3" d="M19.69,94.3V65.5h9.07a21.23,21.23,0,0,1,4.42.44,9.41,9.41,0,0,1,3.55,1.5,7.26,7.26,0,0,1,2.33,2.75,10.77,10.77,0,0,1,0,8.34,8.14,8.14,0,0,1-2.31,2.93,9.7,9.7,0,0,1-3.48,1.72,16.22,16.22,0,0,1-4.34.55H24.79V94.3Zm5.1-14.67h3.75c4.22,0,6.34-1.74,6.34-5.24,0-1.82-.55-3.07-1.65-3.76a9.29,9.29,0,0,0-4.87-1H24.79Z" transform="translate(-1.02 -1)"/><path class="cls-3" d="M45.31,94.3V65.5H53q6.6,0,10.3,3.57T67,79.77a19.21,19.21,0,0,1-1,6.29,12.07,12.07,0,0,1-2.73,4.56A11.35,11.35,0,0,1,59,93.37a16.63,16.63,0,0,1-5.75.93Zm5.11-4.14h2.24a8.8,8.8,0,0,0,6.76-2.53q2.36-2.53,2.36-7.86c0-3.53-.79-6.09-2.38-7.71a9,9,0,0,0-6.74-2.42H50.42Z" transform="translate(-1.02 -1)"/><path class="cls-3" d="M72.83,94.3V65.5H90.22v4.32H77.94V78H88.42v4.32H77.94v12Z" transform="translate(-1.02 -1)"/><rect class="cls-1" x="65.47" y="120.42" width="89.92" height="10"/><rect class="cls-1" x="65.47" y="138.58" width="89.92" height="10"/><rect class="cls-1" x="65.47" y="156.74" width="89.92" height="10"/></svg>