<?xml version="1.0" encoding="utf-8"?>
<!-- Generator: Adobe Illustrator 24.0.1, SVG Export Plug-In . SVG Version: 6.00 Build 0)  -->
<svg version="1.1" id="Layer_1" xmlns="http://www.w3.org/2000/svg" xmlns:xlink="http://www.w3.org/1999/xlink" x="0px" y="0px"
	 viewBox="0 0 226.8 147.1" style="enable-background:new 0 0 226.8 147.1;" xml:space="preserve">
<style type="text/css">
	.st0{fill:#FFFFFF;}
</style>
<g id="BkAO8L_1_">
	<g>
		<path class="st0" d="M114.1,0.3c24.8,0.1,47.6,8.5,68.3,23.4c17,12.3,30.8,28,42.6,45.7c2.1,3.2,2.1,5.5,0,8.7
			c-13.5,20.1-29.6,37.5-49.8,50.3c-15.6,9.9-32.5,16.1-50.7,17.9c-29.6,2.9-56.3-5.6-80.5-23.2C27.2,111,13.5,95.6,1.9,78.2
			c-2.1-3.2-2.1-5.6,0-8.8c13.3-20,29.1-37.3,49.1-50.1C70.1,7.1,90.9,0.4,114.1,0.3z M212.4,73.7c-0.2-0.4-0.3-0.7-0.5-0.9
			c-12.2-17.5-26.6-32.4-44.5-43.5c-15.4-9.5-32.1-15.1-50.1-15.8c-16.1-0.7-31.4,2.6-46.1,9.4c-23.2,10.8-41.1,28.2-56,49.3
			c-0.7,1-0.8,1.7,0,2.7c2.6,3.4,5.1,6.9,7.8,10.2c15.1,18.6,32.8,33.4,55,41.9c18.8,7.2,38,8.7,57.6,4.1c20-4.7,37.1-14.9,52.4-29
			C197.2,93.8,205.2,84.2,212.4,73.7z"/>
		<path class="st0" d="M113.3,115c-21.9-0.1-39.5-18.6-39.4-41.5c0.1-22.8,17.9-41.4,39.7-41.3c21.6,0.1,39.4,18.9,39.4,41.5
			C153,96.4,135,115.1,113.3,115z M140.5,73.7c0.1-15.1-12.1-28.2-26.4-28.3c-15.5-0.1-27.7,12.3-27.7,28.2
			c0,15.5,12.2,28.4,27,28.4C128.1,102.1,140.5,89.1,140.5,73.7z"/>
		<path class="st0" d="M132,73.2c0,3.9-2.5,6.8-6,7c-3.4,0.2-6.1-2.4-6.6-6.2c-0.6-4.6-2.1-6.2-6.4-6.7c-3.4-0.4-5.9-3.3-5.8-6.7
			c0.1-3.6,3-6.5,6.6-6.5C123.1,54.2,132,63.5,132,73.2z"/>
	</g>
</g>
</svg>
